<svg xmlns="http://www.w3.org/2000/svg" viewBox="0 0 1200 514" fill="none">
  <rect width="1200" height="514" fill="url(#bank_grad1)"/>
  <defs>
    <linearGradient id="bank_grad1" x1="0%" y1="0%" x2="100%" y2="100%">
      <stop offset="0%" style="stop-color:#1e40af;stop-opacity:1" />
      <stop offset="100%" style="stop-color:#3b82f6;stop-opacity:1" />
    </linearGradient>
  </defs>
  
  <g opacity="0.15" transform="translate(950, 100)">
    <path fill="white" d="M125 375V200L125 125L0 200V375H50V225H200V375H250V200L125 125Z M75 325H25V250H75V325Z M125 325H75V250H125V325Z M175 325H125V250H175V325Z M225 325H175V250H225V325Z M125 175C138.807 175 150 163.807 150 150C150 136.193 138.807 125 125 125C111.193 125 100 136.193 100 150C100 163.807 111.193 175 125 175Z"/>
  </g>
  
  <g transform="translate(100, 180)">
    <rect x="0" y="0" width="400" height="250" rx="20" fill="white" opacity="0.95"/>
    <rect x="0" y="60" width="400" height="50" fill="#1e40af"/>
    <rect x="30" y="130" width="50" height="40" rx="5" fill="#fbbf24"/>
    <text x="30" y="200" font-family="monospace" font-size="24" fill="#1e40af" font-weight="bold">•••• •••• •••• 4532</text>
    <text x="30" y="230" font-family="Arial" font-size="14" fill="#6b7280">البطاقة المصرفية</text>
    <text x="340" y="230" font-family="monospace" font-size="18" fill="#1e40af" font-weight="bold">12/28</text>
  </g>
  
  <circle cx="580" cy="350" r="40" fill="#fbbf24" opacity="0.9"/>
  <circle cx="620" cy="380" r="35" fill="#f59e0b" opacity="0.9"/>
  <text x="560" y="360" font-size="30" fill="#92400e" font-weight="bold">$</text>
  
  <g transform="translate(750, 280)">
    <path d="M50 0L0 20V60C0 100 50 140 50 140C50 140 100 100 100 60V20L50 0Z" fill="#10b981" opacity="0.9"/>
    <path d="M30 60L45 75L75 45" stroke="white" stroke-width="8" stroke-linecap="round" stroke-linejoin="round" fill="none"/>
  </g>
  
  <text x="100" y="100" font-family="Arial" font-size="48" font-weight="bold" fill="white">الخدمات المصرفية</text>
  <text x="100" y="145" font-family="Arial" font-size="24" fill="white" opacity="0.9">دفع آمن وسريع عبر البنوك الخليجية</text>
</svg>
