<svg xmlns="http://www.w3.org/2000/svg" viewBox="0 0 1200 514">
  <rect width="1200" height="514" fill="url(#grad_con1)"/>
  <defs>
    <linearGradient id="grad_con1" x1="0%" y1="0%" x2="100%" y2="100%">
      <stop offset="0%" style="stop-color:#1e3a8a"/>
      <stop offset="100%" style="stop-color:#3b82f6"/>
    </linearGradient>
  </defs>
  <g transform="translate(100, 100)">
    <rect x="0" y="0" width="350" height="300" rx="15" fill="white" opacity="0.95"/>
    <rect x="20" y="20" width="310" height="40" rx="10" fill="#1e3a8a"/>
    <text x="175" y="48" font-size="20" font-weight="bold" fill="white" text-anchor="middle">عقد اتفاقية</text>
    <rect x="30" y="80" width="290" height="10" rx="5" fill="#e5e7eb"/>
    <rect x="30" y="100" width="290" height="10" rx="5" fill="#e5e7eb"/>
    <rect x="30" y="120" width="290" height="10" rx="5" fill="#e5e7eb"/>
    <rect x="30" y="140" width="200" height="10" rx="5" fill="#e5e7eb"/>
    <rect x="30" y="170" width="290" height="10" rx="5" fill="#e5e7eb"/>
    <rect x="30" y="190" width="290" height="10" rx="5" fill="#e5e7eb"/>
    <rect x="30" y="210" width="250" height="10" rx="5" fill="#e5e7eb"/>
    <path d="M80 260Q100 240 120 260" stroke="#1e3a8a" stroke-width="3" fill="none"/>
  </g>
  <text x="550" y="200" font-size="48" font-weight="bold" fill="white">العقود والاتفاقيات</text>
  <text x="550" y="250" font-size="24" fill="white" opacity="0.9">تسديد العقود بأمان وسرعة</text>
</svg>
