<?xml version="1.0" encoding="utf-8"?>
<!-- Generator: Adobe Illustrator 23.0.1, SVG Export Plug-In . SVG Version: 6.00 Build 0)  -->
<svg version="1.1" id="Layer_1" xmlns="http://www.w3.org/2000/svg" xmlns:xlink="http://www.w3.org/1999/xlink" x="0px" y="0px"
	 viewBox="0 0 1000 1000" enable-background="new 0 0 1000 1000" xml:space="preserve">
<g>
	<path fill="#FDC78B" d="M235.9,427.1c5.9-1.5,12-2.3,18.3-2.3c7.7,0,15.2,1.2,22.2,3.4c-4.6-14.8-13.6-27.6-25.5-36.9
		c-16.6,0.5-32.3,4.7-46.3,11.9C216.5,409.2,227.1,417.3,235.9,427.1"/>
	<path fill="#EA8E57" d="M156.6,548.1c4.5,9.1,10.1,17.4,16.8,24.8c10.3-2.6,19.8-7.3,28-13.7C185.4,558.7,170.2,554.8,156.6,548.1"
		/>
	<path fill="#FDC78B" d="M235.9,572.9c-8.8,9.8-19.4,17.9-31.2,24c14,7.2,29.7,11.4,46.3,11.9c11.9-9.3,20.9-22.2,25.5-36.9
		c-7,2.2-14.5,3.4-22.2,3.4C247.9,575.2,241.8,574.4,235.9,572.9"/>
	<path fill="#EA8E57" d="M173.4,427.1c-6.7,7.4-12.4,15.8-16.8,24.8c13.6-6.7,28.8-10.6,44.8-11.1
		C193.3,434.5,183.8,429.7,173.4,427.1"/>
	<path fill="#FFDFBD" d="M363.1,500c0-42.8-24.8-79.9-60.8-97.6c7.1,14.5,11.2,30.8,11.2,48.1c0,1.1-0.1,2.2-0.1,3.3
		c10,12.8,16,28.8,16,46.3c0,17.5-6,33.6-16,46.3c0,1.1,0.1,2.2,0.1,3.3c0,17.3-4,33.6-11.2,48.1C338.3,579.9,363.1,542.9,363.1,500
		"/>
	<path fill="#EA8D57" d="M182.4,477.8c-13.4,4.1-25.2,11.9-34.2,22.2c9,10.3,20.8,18.1,34.2,22.2c-2.2-7-3.3-14.5-3.3-22.2
		C179.1,492.3,180.3,484.8,182.4,477.8"/>
	<path fill="#F2A752" d="M226.9,477.8c2.2,7,3.3,14.5,3.3,22.2c0,7.7-1.2,15.2-3.3,22.2c13.4-4.2,25.2-12,34.2-22.2
		C252.1,489.7,240.3,481.9,226.9,477.8"/>
	<path fill="#FDC78B" d="M173.4,427.1c8.8-9.8,19.4-17.9,31.2-24c-14-7.2-29.7-11.4-46.3-11.9c-11.9,9.3-20.9,22.2-25.5,36.9
		c7-2.2,14.5-3.4,22.2-3.4C161.4,424.8,167.6,425.6,173.4,427.1"/>
	<path fill="#F2A752" d="M252.7,451.9c-4.5-9.1-10.1-17.4-16.8-24.8c-10.3,2.6-19.8,7.3-28,13.7C224,441.3,239.2,445.2,252.7,451.9"
		/>
	<path fill="#FDC78B" d="M173.4,572.9c-5.9,1.5-12,2.3-18.4,2.3c-7.7,0-15.2-1.2-22.2-3.4c4.6,14.8,13.6,27.6,25.5,36.9
		c16.6-0.5,32.3-4.7,46.3-11.9C192.8,590.8,182.3,582.7,173.4,572.9"/>
	<path fill="#F2A752" d="M235.9,572.9c6.7-7.4,12.4-15.8,16.8-24.8c-13.6,6.7-28.8,10.6-44.8,11.1
		C216.1,565.5,225.6,570.3,235.9,572.9"/>
	<path fill="#FFDFBD" d="M95.9,546.3c-10-12.8-16-28.8-16-46.3c0-17.5,6-33.5,16-46.3c0-1.1-0.1-2.2-0.1-3.3
		c0-17.3,4-33.6,11.2-48.1c-36,17.7-60.8,54.8-60.8,97.6S71,579.9,107,597.6c-7.1-14.5-11.2-30.8-11.2-48.1
		C95.8,548.5,95.9,547.4,95.9,546.3"/>
	<path fill="#F2A752" d="M252.7,548.1c9.1-4.5,17.4-10.1,24.8-16.8c-2.6-10.3-7.3-19.8-13.7-28C263.4,519.3,259.4,534.5,252.7,548.1
		"/>
	<path fill="#F9DCC5" d="M158.4,391.3c12.8-10,28.8-16,46.3-16c17.5,0,33.5,6,46.3,16c1.1,0,2.2-0.1,3.3-0.1
		c17.3,0,33.6,4,48.1,11.2c-17.8-36-54.8-60.8-97.6-60.8s-79.9,24.8-97.7,60.8c14.5-7.1,30.8-11.2,48.1-11.2
		C156.2,391.2,157.3,391.2,158.4,391.3"/>
	<path fill="#F2A752" d="M182.5,522.2c4.1,13.4,11.9,25.2,22.2,34.2c10.3-9,18.1-20.8,22.2-34.2c-7,2.2-14.5,3.3-22.2,3.3
		C196.9,525.6,189.5,524.4,182.5,522.2"/>
	<path fill="#EC9256" d="M131.8,531.2c7.4,6.7,15.8,12.4,24.8,16.8c-6.7-13.6-10.6-28.7-11.1-44.8
		C139.1,511.4,134.4,520.9,131.8,531.2"/>
	<path fill="#F8D4AE" d="M276.5,428.2c2.2,7,3.3,14.5,3.3,22.2c0,6.3-0.8,12.5-2.3,18.4c9.8,8.8,17.9,19.4,24,31.2
		c7.2-14,11.4-29.7,11.9-46.3C304.1,441.8,291.3,432.8,276.5,428.2"/>
	<path fill="#FDC78B" d="M131.8,468.8c-1.5-5.9-2.3-12-2.3-18.4c0-7.7,1.2-15.2,3.3-22.2c-14.8,4.6-27.6,13.6-36.9,25.5
		c0.5,16.6,4.7,32.3,11.9,46.3C113.9,488.2,122,477.6,131.8,468.8"/>
	<path fill="#EC6F30" d="M204.7,556.5c-10.3-9-18.1-20.8-22.2-34.2c-13.4-4.2-25.2-12-34.2-22.2c-0.9,1.1-1.8,2.2-2.7,3.3
		c0.5,16.1,4.4,31.2,11.1,44.8c13.6,6.7,28.7,10.6,44.8,11.1C202.5,558.3,203.6,557.4,204.7,556.5"/>
	<path fill="#F5BF82" d="M251,391.3c11.9,9.3,20.9,22.2,25.5,36.9c14.8,4.6,27.6,13.6,36.9,25.5c0-1.1,0.1-2.2,0.1-3.3
		c0-17.3-4-33.6-11.2-48.1c-14.5-7.1-30.8-11.2-48.1-11.2C253.2,391.2,252.1,391.2,251,391.3"/>
	<path fill="#F19635" d="M261.1,500c-9,10.3-20.8,18.1-34.2,22.2c-4.1,13.4-11.9,25.2-22.2,34.2c1.1,0.9,2.2,1.8,3.3,2.7
		c16-0.5,31.2-4.4,44.8-11.1c6.7-13.6,10.6-28.7,11.1-44.8C263,502.2,262.1,501.1,261.1,500"/>
	<path fill="#FBB16B" d="M95.9,453.7c9.3-11.9,22.2-20.9,36.9-25.5c4.6-14.8,13.6-27.6,25.5-36.9c-1.1,0-2.2-0.1-3.3-0.1
		c-17.3,0-33.6,4-48.1,11.2c-7.1,14.5-11.2,30.8-11.2,48.1C95.8,451.5,95.9,452.6,95.9,453.7"/>
	<path fill="#EE8430" d="M207.9,559.2c-1.1-0.9-2.2-1.8-3.3-2.7c-1.1,0.9-2.2,1.8-3.3,2.7c-8.1,6.4-17.6,11.1-28,13.7
		c8.8,9.8,19.4,17.9,31.2,24c11.8-6.1,22.4-14.2,31.2-24C225.6,570.3,216.1,565.5,207.9,559.2"/>
	<path fill="#F2A752" d="M226.9,477.8c-4.1-13.4-11.9-25.2-22.2-34.2c-10.3,9-18.1,20.8-22.2,34.2c7-2.2,14.5-3.3,22.2-3.3
		C212.4,474.4,219.9,475.6,226.9,477.8"/>
	<path fill="#F8D4AE" d="M277.6,531.2c1.5,5.9,2.3,12,2.3,18.4c0,7.7-1.2,15.2-3.3,22.2c14.8-4.6,27.6-13.6,36.9-25.5
		c-0.5-16.7-4.7-32.4-11.9-46.3C295.5,511.8,287.3,522.4,277.6,531.2"/>
	<path fill="#FDC78B" d="M131.8,531.2c-9.8-8.8-17.9-19.4-24-31.2c-7.2,14-11.4,29.7-11.9,46.3c9.3,11.9,22.2,20.9,36.9,25.5
		c-2.2-7-3.3-14.5-3.3-22.2C129.5,543.3,130.3,537.1,131.8,531.2"/>
	<path fill="#F2A752" d="M263.8,496.7c6.4-8.1,11.1-17.6,13.7-28c-7.4-6.7-15.8-12.4-24.8-16.8C259.4,465.5,263.4,480.7,263.8,496.7
		"/>
	<path fill="#F9DCC5" d="M251,608.8c-12.8,10-28.8,16-46.3,16c-17.5,0-33.5-6-46.3-16c-1.1,0-2.2,0.1-3.3,0.1
		c-17.3,0-33.6-4-48.1-11.2c17.8,36,54.8,60.8,97.7,60.8s79.9-24.8,97.6-60.8c-14.5,7.1-30.8,11.2-48.1,11.2
		C253.2,608.8,252.1,608.8,251,608.8"/>
	<path fill="#EC9356" d="M156.6,451.9c-9.1,4.5-17.4,10.1-24.8,16.8c2.6,10.3,7.3,19.8,13.7,28C146,480.7,149.9,465.5,156.6,451.9"
		/>
	<path fill="#EC6F30" d="M148.2,500c9-10.3,20.8-18.1,34.2-22.2c4.2-13.4,11.9-25.2,22.2-34.2c-1.1-0.9-2.2-1.8-3.3-2.7
		c-16,0.5-31.2,4.4-44.8,11.1c-6.7,13.6-10.6,28.7-11.1,44.8C146.4,497.8,147.3,498.9,148.2,500"/>
	<path fill="#F5BF82" d="M313.4,546.3c-9.3,11.9-22.2,20.9-36.9,25.5c-4.6,14.8-13.6,27.6-25.5,36.9c1.1,0,2.2,0.1,3.3,0.1
		c17.3,0,33.6-4,48.1-11.2c7.1-14.5,11.2-30.8,11.2-48.1C313.5,548.5,313.5,547.4,313.4,546.3"/>
	<path fill="#FBB16B" d="M158.4,608.8c-11.9-9.3-20.9-22.2-25.5-36.9c-14.8-4.6-27.6-13.6-36.9-25.5c0,1.1-0.1,2.2-0.1,3.3
		c0,17.3,4,33.6,11.2,48.1c14.5,7.1,30.8,11.2,48.1,11.2C156.2,608.8,157.3,608.8,158.4,608.8"/>
	<path fill="#F19635" d="M204.7,443.6c10.3,9,18.1,20.8,22.2,34.2c13.4,4.1,25.2,11.9,34.2,22.2c0.9-1.1,1.8-2.2,2.7-3.3
		c-0.5-16.1-4.4-31.2-11.1-44.8c-13.6-6.7-28.8-10.6-44.8-11.1C206.8,441.7,205.7,442.6,204.7,443.6"/>
	<path fill="#EE8430" d="M204.7,403.1c-11.8,6.1-22.4,14.2-31.2,24c10.3,2.6,19.8,7.3,28,13.7c1.1,0.9,2.2,1.8,3.3,2.7
		c1.1-0.9,2.1-1.8,3.3-2.7c8.1-6.4,17.6-11.1,28-13.7C227.1,417.3,216.5,409.2,204.7,403.1"/>
	<path fill="#EC6F30" d="M145.5,496.7c-6.4-8.1-11.1-17.6-13.7-28c-9.8,8.8-17.9,19.4-24,31.2c6.1,11.8,14.2,22.4,24,31.2
		c2.6-10.3,7.3-19.8,13.7-28c0.9-1.1,1.8-2.2,2.7-3.3C147.3,498.9,146.4,497.8,145.5,496.7"/>
	<path fill="#F19635" d="M277.6,468.8c-2.6,10.3-7.3,19.8-13.7,28c-0.9,1.1-1.8,2.2-2.7,3.3c0.9,1.1,1.8,2.2,2.7,3.3
		c6.4,8.1,11.1,17.6,13.7,28c9.8-8.8,17.9-19.4,24-31.2C295.5,488.2,287.3,477.6,277.6,468.8"/>
	<path fill="#948D81" d="M560.5,574.4v-37.5c0-4.3-2.6-7.4-8.6-7.4c-3.2,0-5.4,0.9-7.4,2.6v42.4h-17.2v-37.8c0-4.3-3.4-7.2-9.4-7.2
		c-3.2,0-4.9,0.3-6.9,1.1v43.8h-17.2v-50.7c6.6-2.6,13.7-4,24.1-4c9.7,0,15.5,2.6,18.9,5.5c3.7-2.9,9.7-5.5,19.5-5.5
		c14.3,0,21.5,7.7,21.5,17.2v37.5H560.5"/>
	<path fill="#948D81" d="M618.6,565.8c-1.4,0.6-3.7,0.9-6.3,0.9c-6.9,0-10.6-2.6-10.6-8.9c0-8.6,6.6-10.6,16.9-11.7V565.8z
		 M611.5,519.7c-10.6,0-18.3,2.6-22.3,4l3.7,8.9c3.7-1.4,9.7-3.2,15.5-3.2c6.3,0,10.3,1.4,10.3,7.2v2.6
		c-17.8,1.4-33.2,5.4-33.2,19.2c0,11.2,8.9,16.9,26.1,16.9c10.3,0,18.3-1.4,23.2-4v-31.8C634.7,524.8,624.9,519.7,611.5,519.7"/>
	<path fill="#948D81" d="M811.4,565.8c-1.7,0.6-3.7,0.9-6.3,0.9c-6.9,0-10.9-2.6-10.9-8.9c0-8.6,6.9-10.6,17.2-11.7V565.8z
		 M804,519.7c-10.3,0-18,2.6-22.3,4l3.7,8.9c4-1.4,9.7-3.2,15.5-3.2c6.3,0,10.6,1.4,10.6,7.2v2.6c-18.1,1.4-33.2,5.4-33.2,19.2
		c0,11.2,8.9,16.9,26.1,16.9c10.3,0,18.3-1.4,23.2-4v-31.8C827.4,524.8,817.4,519.7,804,519.7"/>
	<path fill="#948D81" d="M679.1,574.4v-37.5c0-3.7-2-7.4-8.9-7.4c-3.4,0-5.5,0.6-7.4,1.1v43.8h-17.2v-50.7c6-2.3,14.6-4,24.9-4
		c18.9,0,25.8,7.4,25.8,17.2v37.5H679.1"/>
	<path fill="#948D81" d="M871.5,574.4v-37.5c0-3.7-2-7.4-8.9-7.4c-3.4,0-5.2,0.6-7.2,1.1v43.8h-17.2v-50.7c5.7-2.3,14.3-4,24.9-4
		c18.9,0,25.5,7.4,25.5,17.2v37.5H871.5"/>
	<g>
		<path fill="#948D81" d="M934.3,574.4l-16.9-27.2h-0.3v27.2h-17.2v-66.2c0,0,5.5-4.3,17.2-4.3v40.4h0.3l16.6-23.5h17.2l-18.6,24.1
			l21.2,29.5H934.3"/>
	</g>
	<path fill="#948D81" d="M483.2,580.7v-57h-17.5v59c0,8.3-1.1,12.9-4.9,15.8c-0.8,0.6-1.4,0.8-2.3,1.4l3.7,8.3
		c2.3-0.3,4.6-1.1,6.9-2.3c4.3-2.3,8-6,10.6-10.6C481.7,591.3,483.2,586.4,483.2,580.7"/>
	<path fill="#948D81" d="M483.2,502.8h-8.9c-4.9,0-8.6,3.4-8.6,7.2v6.6h17.5V502.8"/>
	<path fill="#948D81" d="M428.1,528.2c-1.4-4.8-1.8-8.3-1.8-8.3h-0.2c0,0-0.4,3.4-2,8.3l-7.1,22.3h17.8L428.1,528.2z M441.9,574.4
		l-4.6-14.6h-22.9l-4.9,14.6h-16l22.9-61.4c0,0,5.1-7,19.3-7l24.6,68.4H441.9"/>
	<path fill="#231F20" d="M758.1,416.7h-6.4c-5,0-8.8,3.3-8.8,7.1v5.6h15.2V416.7"/>
	<path fill="#231F20" d="M756.3,472.8c-2,2.5-4.4,3.4-6.6,3.4c-3.7,0-6.1-2.5-7.4-5.7c-1.4-3.2-1.8-7.3-1.8-10.4
		c0-3,0.7-6.2,2.3-8.7c1.6-2.5,4.1-4.2,7.6-4.2c3.4,0,5.7,1.6,7.2,3.9c1.5,2.3,2.1,5.3,2.1,8.2C759.6,466,758.2,470.2,756.3,472.8
		 M775.5,462.6c0-14.7-9.9-25.8-24.9-25.8c-14.9,0-27.1,11.1-27.1,26.1c0,5.1,0.8,9.5,2.8,13h-1.7c-38.9,0-24.4-35.8-24.4-35.8
		l-10.8-4.6c-6.7,10.7-11.3,30.1,1.6,43.7c7.7,8.1,19.8,10.3,32.5,10.3H747C762.8,489.5,775.5,478.6,775.5,462.6"/>
	<path fill="#231F20" d="M935.5,476.2v0.2h-4.6c-5.2,0-8.5-2.2-10.5-5.6c-2-3.4-2.7-8-2.7-12.9c0-3,0.8-6,2.3-8.2
		c1.5-2.2,3.9-3.7,7-3.7c3.2,0,5.4,1.5,6.7,3.7c1.3,2.2,1.8,5.2,1.8,8.4V476.2z M868.6,476.2h-39c4.4-10.1,17.7-25.8,30.9-25.8
		c3,0,5,0.8,6.1,2.7c1.1,2.2,1.9,5.7,1.9,10.3V476.2z M950.3,453.1c-1.1-3.5-2.5-6.2-4.4-8.7c-1.9-2.4-4.4-4.3-7.5-5.7
		c-2.8-1.4-6.1-1.9-9.9-1.9c-3.9,0-7.7,0.5-10.8,1.6c-3.3,1.1-6.4,3-8.8,5.4c-2.2,2.2-4.2,5.2-5.5,8.7c-1.1,3.5-1.7,7.9-1.7,12.8
		c0,1.1-0.3,2.4-0.6,3.8s-0.8,2.7-1.4,3.8c-0.8,0.8-1.4,1.6-2.2,2.2c-1.1,0.8-1.9,1.1-3,1.1h-9v-14.1c0-8.1-1.9-14.7-6.1-18.7
		c-4.1-4.3-9.7-6.5-16.6-6.5c-3.6,0-6.9,0.8-10.2,2.2c-3,1.4-6.1,3-8.8,5.2s-5.2,4.6-7.5,7.3c-0.6,0.8-0.8,1.6-1.4,2.2v-15.2
		c-11,0-15.5,3.8-16.3,4.3v33.4h-9.2c-3.6,0-6.1-3.8-6.6-7.1c-0.3-1.4-0.6-2.7-0.6-3.8v-26.9c-11.1,0-15.5,3.8-16.3,4.3v38.3
		c0,5.2-0.8,9.7-2.8,11.6c-0.8,0.7-1.7,1.3-7.7,1.7v11.9c18.8-0.3,27.6-8.6,26.8-23.6c1.8,5.2,13,6.8,18.1,6.8h70.1
		c8.3,0,12.7-4.9,15.2-10.6c6.1,9.2,14.9,10.6,23.8,10.6h22.4V464C951.6,459.9,951.1,456.4,950.3,453.1"/>
	<path fill="#231F20" d="M434.6,416.4H428c-5.2,0-9.2,3.4-9.2,7.3v5.9h15.7V416.4"/>
	<path fill="#231F20" d="M565.4,503.2v5.9h15.7v-13.2h-6.6C569.4,495.9,565.4,499.3,565.4,503.2"/>
	<path fill="#231F20" d="M457.4,468v-34.6c-11.5,0-16,3.9-16.9,4.5v29.9c0,10.3-1.9,12.1-10.2,12.4c-2,0.1-4.2,0-7,0
		c-9.3-1.6-12.7-10.5-13.2-20.5v-24.2c-11.4,0-16,3.9-16.6,4.5v14.9c-0.9,18.3,5.4,36.8,28.9,36.8h6.6
		C445.4,491.6,458.3,485.7,457.4,468"/>
	<path fill="#231F20" d="M533.1,475.7h-4.6c-10.6,0-13.4-8.8-13.4-18.9c0-6.2,3.2-12.1,9.4-12.1c6.6,0,8.6,5.9,8.6,12.4V475.7z
		 M652.1,475.7c-9.7,0-19.2-3.7-19.2-14.3c0-13.2,13.4-18,24.1-13.8l2.6-10.4l-1.1-0.3c-17.7-5.6-41.8,2.2-41.8,23.6
		c0,5.1,1.7,11,5.1,15.2h-11.1c-3.7,0-6.3-3.9-6.9-7.3c-0.3-1.4-0.6-2.8-0.6-3.9c0-3.7-0.6-7.3-1.7-10.7c-1.1-3.7-3.2-6.5-6-9
		c-2.9-2.5-6.6-4.8-11.2-6.2c-6.9-2.3-22-2.5-29.2-0.8l3.7,9.8c10.3-0.6,21.5-2.5,26.3,8.7c0.6,2.3,0.9,7.6,0.9,10.7v8.7h-36.4V463
		c0-14.9-7.4-28.1-23.8-28.1c-12,0-21.8,5.1-26,16.3c-1.4,3.7-2,8.2-2,13.2c0,4.2-2,11.2-7.4,11.2H484v-64.9
		c-11.5,0-16.3,4.2-16.3,4.2l-0.3,0.3v74.2h22.2c7.2-0.6,11.7-2.2,14.9-8.1c4.9,6.5,14,8.1,22.3,8.1h59c0,0,16,0,17.5-7
		c2.3,5.6,6.6,7.3,11.7,7h47.8v-13.8H652.1"/>
	<path fill="#948D81" d="M738.5,542.7H735v21.9c1.8,0.6,3.9,1,6.8,1c8.3,0,13.1-3,13.1-10.8C754.9,546.7,750.7,542.7,738.5,542.7
		 M740.9,514.1c-2.6,0-3.9,0.2-5.9,0.8V535h3.5c9.9,0,14.4-3.3,14.4-10.7C752.9,517.3,749,514.1,740.9,514.1 M742.2,575.2
		c-10.5,0-18.6-1.4-24.2-4V509c5.1-2.4,11.5-4,21.4-4c19.9,0,29.2,7.9,29.2,18.1c0,8.9-5.6,13.7-11.6,15.1v0.2
		c6.8,1.6,15.7,7.5,15.7,17C772.7,569,761.1,575.2,742.2,575.2"/>
</g>
</svg>
