<?xml version="1.0" encoding="utf-8"?>
<!-- Generator: Adobe Illustrator 24.3.0, SVG Export Plug-In . SVG Version: 6.00 Build 0)  -->
<svg version="1.1" id="Layer_1" xmlns="http://www.w3.org/2000/svg" xmlns:xlink="http://www.w3.org/1999/xlink" x="0px" y="0px"
	 viewBox="0 0 512 512" style="enable-background:new 0 0 512 512;" xml:space="preserve">
<style type="text/css">
	.st0{fill:#1B4298;}
	.st1{fill:#FFFFFF;}
</style>
<g id="XMLID_1_">
	<rect id="XMLID_2_" y="194.14" class="st0" width="512" height="123.72"/>
	<path id="XMLID_3_" class="st1" d="M236.5,295h3.23v-2.95h-3.23V295z M346.06,267.36h-3.23v2.95h3.23V267.36z M278.72,293.03h3.23
		v-2.95h-3.23V293.03z M230.75,295h3.23v-2.95h-3.23V295z M278.44,273.67c-2.1,0-3.93,0.42-5.47,1.26v5.61h3.23v-4.21
		c0,0,0.84-0.42,2.38-0.42c3.37,0,7.01,3.23,7.01,8.98c0,0.14,0,0.42-0.14,0.84h-15.15v-0.7c0-6.59-4.35-11.08-10.8-11.08
		c-1.96,0-3.93,0.42-5.47,1.26v5.61h3.23v-4.21c0,0,0.84-0.42,2.38-0.42c3.37,0,7.01,3.23,7.01,8.98v0.84h-15.99v-13.19h-2.95
		c-8,0-8.28,4.07-8.28,8.98v4.35c0,2.38-0.84,2.81-2.1,2.81h-2.52c-1.68,0-4.35-0.28-4.35-6.17c0-4.91,2.1-7.29,6.59-7.15v-1.96
		c-3.37,0-5.47,0.7-7.43,2.52c-1.68,1.54-2.38,3.79-2.38,6.73c0,6.03,2.67,8.14,6.31,8.14h4.63c2.95,0,4.63-1.82,4.63-5.19v-4.35
		c0-4.07,0.7-6.31,4.63-6.31v13.19h41.24c0.42-1.4,0.42-3.09,0.42-3.09C289.24,278.16,284.76,273.67,278.44,273.67z M337.92,277.46
		c0,3.23,2.24,5.33,6.03,5.33h2.38v0.28c0,1.54-0.7,2.38-2.1,2.38h-9.96c-4.07,0-5.61-1.12-5.61-4.49v-6.31h-3.23v7.01
		c0,4.63,2.1,6.03,8.42,6.03h11.22c1.54,0,2.67-0.56,3.51-1.54c0.7-0.98,1.12-2.1,1.12-3.51v-10.1h-5.05
		C340.02,272.41,337.92,274.1,337.92,277.46z M346.34,274.52v6.31h-1.4c-0.98,0-3.79-0.28-3.79-3.23c0-2.1,1.26-3.09,3.51-3.09
		H346.34z M292.33,287.56h3.23V265.4h-3.23V287.56z M393.61,276.48c-2.95-2.67-8.84-1.68-10.66-1.4v10.38h-3.09
		c0.14-0.28,0.14-0.98,0.14-0.98c0.42-5.47-2.81-8.7-7.29-8.7c-3.51,0-6.73,2.24-8.98,5.33l-0.42,0.7v-5.47h-3.51v6.03
		c0,2.1-0.7,2.95-2.24,2.95h-1.54v-10.94h-3.23v13.19c0,1.82,0,2.81-0.56,3.93c-0.28,0.56-0.84,0.98-1.54,1.26c0,0.14,0,0.7,0,0.98
		c3.79-0.14,5.33-1.96,5.33-6.31h31.84c4.35,0,7.43-2.52,7.43-6.45C395.43,279.29,394.87,277.74,393.61,276.48z M376.78,284.34
		l-0.14,1.26h-12.76l0.14-0.42c2.38-4.63,5.33-6.87,8.7-6.73C375.65,278.58,377.06,281.11,376.78,284.34z M387.44,285.6h-1.26v-8.56
		c0,0,0.42-0.14,1.12-0.14c2.95,0,4.63,1.54,4.63,4.35C392.21,283.91,390.1,285.6,387.44,285.6z M311.97,287.56h3.23V265.4h-3.23
		V287.56z M305.52,282.51c0,2.52-1.26,3.09-2.24,3.09h-1.12v-10.94h-3.23v13.19c0,1.82,0,2.81-0.56,3.93
		c-0.28,0.56-0.84,0.98-1.54,1.26c0,0.14,0,0.7,0,0.98c3.79-0.14,5.33-1.96,5.33-6.31h1.96c1.54,0,2.67-0.56,3.51-1.68
		c0.7-0.98,1.12-2.1,1.12-3.65c0,0,0-15.99,0-16.83h-3.23C305.52,266.38,305.52,282.51,305.52,282.51z"/>
	<path id="XMLID_18_" class="st1" d="M418.58,219.25v73.5h69.58v-73.5L418.58,219.25L418.58,219.25z M483.38,287.56h-60.04v-63.4
		h60.04V287.56z"/>
	<path id="XMLID_21_" class="st1" d="M441.44,239.45v12.06l-10.52,6.45v14.45l11.78,7.29l10.8-6.31l10.38,6.31l12.06-7.29V258.1
		l-10.52-6.45v-12.06l-11.78-7.29L441.44,239.45z M441.44,257.4v8.7l7.01,4.35l-5.75,3.51l-7.01-4.35v-8.7L441.44,257.4z
		 M453.37,238.04l7.01,4.35c0,0,0,20.62,0,20.76c0,0-7.01,4.21-7.01,4.35c-0.14,0-7.01-4.21-7.15-4.35c0-0.14,0-20.76,0-20.76
		L453.37,238.04z M465.29,266.1L465.29,266.1v-8.7l5.75,3.51v8.7l-7.01,4.35l-5.75-3.51L465.29,266.1z"/>
	<rect id="XMLID_26_" x="69.01" y="265.54" class="st1" width="3.23" height="22.16"/>
	<path id="XMLID_27_" class="st1" d="M55.69,266.66l-8.14,21.18h3.09l2.1-5.89h7.86l1.82,5.89h3.79l-7.57-21.18H55.69z
		 M56.81,270.31l3.09,9.4h-6.31L56.81,270.31z"/>
	<path id="XMLID_30_" class="st1" d="M153.46,266.66v21.18h6.17c4.63,0,7.57-2.38,7.57-6.03c0-3.09-2.67-4.91-5.19-5.05v-0.56
		c0.7-0.14,3.79-1.26,3.79-5.05c0-2.81-2.1-4.35-5.61-4.35h-6.73V266.66z M156.69,268.62h2.38c2.1,0,3.37,1.12,3.37,2.95
		c0,2.24-1.82,3.93-4.21,3.93h-1.54L156.69,268.62L156.69,268.62z M156.69,277.74h2.81c2.67,0,4.35,1.54,4.35,3.93
		c0,2.38-1.68,3.93-4.35,3.93h-2.95L156.69,277.74L156.69,277.74z"/>
	<polygon id="XMLID_34_" class="st1" points="202.7,265.54 202.7,287.56 206.06,287.56 206.06,278.86 212.23,287.84 215.46,286.72 
		209.71,279 214.06,273.53 211.11,272.13 206.06,278.86 206.06,265.54 	"/>
	<path id="XMLID_35_" class="st1" d="M189.37,274.52l-0.42,0.56v-2.24h-3.23v14.87h3.23v-8.98c0-2.52,1.4-4.07,3.65-4.07
		c2.1,0,3.23,1.4,3.23,3.79v9.26h3.23v-9.68c0-3.79-1.68-5.61-4.91-5.61C192.18,272.41,190.49,273.11,189.37,274.52z"/>
	<rect id="XMLID_36_" x="139.43" y="272.83" class="st1" width="3.23" height="14.87"/>
	<rect id="XMLID_37_" x="139.43" y="267.36" class="st1" width="3.23" height="2.95"/>
	<rect id="XMLID_38_" x="115.31" y="267.36" class="st1" width="3.23" height="2.95"/>
	<path id="XMLID_39_" class="st1" d="M122.18,265.54v22.16h3.23v-8.98c0-2.52,1.4-4.07,3.65-4.07c2.1,0,3.23,1.4,3.23,3.79v9.26
		h3.23v-9.68c0-3.79-1.68-5.61-4.91-5.61c-1.82,0-3.51,0.7-4.77,2.1l-0.42,0.56v-9.54L122.18,265.54L122.18,265.54z"/>
	<path id="XMLID_40_" class="st1" d="M83.18,266.66v21.18h3.23v-8.98h2.67c0,0,4.07,8.98,4.35,9.26c0.28-0.14,3.23-0.7,3.79-0.7
		c-0.42-0.7-4.77-9.12-4.77-9.12l0.14-0.14c2.24-1.4,3.23-3.37,3.23-6.03c0-3.37-2.38-5.33-6.31-5.33L83.18,266.66L83.18,266.66z
		 M86.41,268.62h2.67c2.24,0,3.51,1.4,3.51,3.65c0,1.96-1.26,4.35-4.07,4.35h-2.24v-8H86.41z"/>
	<path id="XMLID_43_" class="st1" d="M115.31,272.83v15.01c0,1.68-0.28,3.23-0.56,3.93c-0.28,0.56-0.84,0.98-1.54,1.26
		c0,0.14,0,0.7,0,0.98c3.79-0.14,5.33-1.96,5.33-6.31v-14.87H115.31z"/>
	<path id="XMLID_44_" class="st1" d="M176.32,272.41c-2.1,0-3.65,0.56-5.19,1.82c0.14,0.28,0.7,1.12,0.98,1.54
		c1.12-0.98,2.38-1.54,3.79-1.54c1.54,0,2.52,1.12,2.67,2.67v0.28l-3.51,1.12c-3.51,0.98-5.19,2.81-5.19,5.33
		c0,2.52,1.68,4.35,3.93,4.35c3.09,0,4.91-2.95,4.91-2.95v2.52h3.37v-9.82C181.94,274.24,180.11,272.41,176.32,272.41z
		 M177.31,284.76c-0.7,0.7-1.26,0.98-2.1,0.98c-1.12,0-2.1-1.12-2.1-2.52c0-1.82,0.98-3.23,3.09-3.79l2.1-0.7l0.42-0.14V279
		C178.99,282.37,178.01,284.05,177.31,284.76z"/>
	<path id="XMLID_47_" class="st1" d="M105.91,272.41c-2.1,0-3.65,0.56-5.19,1.82c0.14,0.28,0.7,1.12,0.98,1.54
		c1.26-0.98,2.38-1.54,3.79-1.54c1.54,0,2.52,1.12,2.67,2.67v0.28l-3.51,1.12c-3.51,0.98-5.19,2.81-5.19,5.33
		c0,2.52,1.68,4.35,3.93,4.35c3.09,0,4.91-2.95,4.91-2.95v2.52h3.37v-9.82C111.66,274.24,109.83,272.41,105.91,272.41z
		 M107.03,284.76c-0.7,0.7-1.26,0.98-2.1,0.98c-1.12,0-2.1-1.12-2.1-2.52c0-1.82,0.98-3.23,3.09-3.79l2.1-0.7l0.42-0.14V279
		C108.71,282.37,107.59,284.05,107.03,284.76z"/>
</g>
</svg>
