<svg xmlns="http://www.w3.org/2000/svg" version="1.1" viewBox="171.51 72.89 533.66 312.77">
<g id="#ffffffff">
</g>
<g id="#00468cff">
<path fill="#00468c" opacity="1.00" d=" M 442.16 81.06 C 444.53 79.05 443.29 74.52 446.90 73.75 C 449.41 73.06 450.86 75.39 452.11 77.09 C 451.26 77.42 450.42 77.77 449.59 78.13 C 449.13 77.50 448.22 76.23 447.76 75.59 C 446.96 77.00 446.44 78.54 446.13 80.13 C 447.97 80.15 449.83 80.18 451.68 80.22 C 451.67 80.81 451.65 81.99 451.64 82.58 C 448.51 82.58 445.39 82.58 442.26 82.57 C 442.24 82.19 442.19 81.44 442.16 81.06 Z"/>
<path fill="#00468c" opacity="1.00" d=" M 226.98 83.36 C 227.12 81.16 227.20 77.99 229.98 77.50 C 232.22 76.73 234.07 78.33 235.05 80.19 C 234.46 80.85 233.81 81.46 233.18 82.08 C 232.59 81.37 231.42 79.97 230.83 79.26 C 230.21 80.67 229.66 82.12 229.18 83.58 C 231.58 83.95 235.31 82.66 235.48 86.25 C 232.20 86.43 228.92 86.41 225.64 86.43 C 225.50 85.96 225.23 85.03 225.10 84.57 C 225.57 84.27 226.51 83.66 226.98 83.36 Z"/>
<path fill="#00468c" opacity="1.00" d=" M 187.27 85.33 C 188.80 85.31 190.33 85.31 191.86 85.31 C 191.91 95.57 191.89 105.83 191.89 116.08 C 192.22 120.71 188.46 124.88 184.09 125.88 C 178.42 127.47 171.91 122.94 171.60 117.03 C 171.42 112.75 171.57 108.46 171.59 104.18 C 173.14 104.19 174.70 104.21 176.26 104.24 C 176.37 108.40 176.05 112.59 176.42 116.75 C 176.89 120.33 181.56 122.65 184.58 120.43 C 186.83 119.15 187.37 116.38 187.27 113.99 C 187.27 104.44 187.22 94.88 187.27 85.33 Z"/>
<path fill="#00468c" opacity="1.00" d=" M 238.80 85.27 C 240.40 85.29 242.00 85.31 243.61 85.34 C 243.62 93.85 243.69 102.36 243.60 110.87 C 243.76 114.62 240.77 118.08 236.99 118.32 C 231.72 118.63 226.42 118.38 221.14 118.38 C 221.14 116.77 221.14 115.15 221.15 113.54 C 226.06 113.39 230.99 113.63 235.90 113.44 C 237.36 113.59 238.86 112.47 238.67 110.92 C 238.89 102.37 238.60 93.82 238.80 85.27 Z"/>
<path fill="#00468c" opacity="1.00" d=" M 248.20 85.33 C 249.75 85.31 251.31 85.30 252.86 85.31 C 253.39 96.32 253.04 107.36 252.86 118.38 C 251.30 118.39 249.74 118.39 248.18 118.38 C 248.20 107.36 248.16 96.35 248.20 85.33 Z"/>
<path fill="#00468c" opacity="1.00" d=" M 357.18 85.46 C 358.68 85.27 360.19 85.25 361.70 85.19 C 361.84 90.11 361.77 95.03 361.76 99.96 C 365.43 97.52 369.40 94.63 374.07 95.12 C 378.36 95.19 381.94 98.96 382.53 103.08 C 382.93 106.33 382.98 109.66 382.48 112.90 C 381.83 116.32 378.36 118.49 375.02 118.41 C 369.68 118.53 364.34 118.38 359.01 118.44 C 354.65 118.38 350.17 118.92 345.99 117.36 C 343.75 118.17 341.39 118.59 339.01 118.47 C 326.96 118.31 314.89 118.64 302.85 118.31 C 302.54 118.10 301.93 117.68 301.63 117.47 C 300.69 114.13 301.42 110.49 301.25 107.03 C 301.06 104.80 301.91 101.76 299.58 100.39 C 297.75 98.85 294.73 100.73 294.77 102.95 C 294.48 109.28 294.96 115.62 294.60 121.94 C 294.62 124.35 291.56 123.84 289.96 124.08 C 285.02 124.04 280.04 124.38 275.13 123.77 C 269.05 122.94 264.96 115.75 267.38 110.10 C 268.36 106.70 271.49 104.77 274.36 103.12 C 275.21 104.47 276.05 105.83 276.90 107.19 C 275.04 108.56 272.58 109.59 271.87 112.00 C 270.59 115.22 273.38 118.89 276.70 119.07 C 281.05 119.33 285.41 119.10 289.76 119.16 C 289.91 113.43 289.53 107.69 289.93 101.97 C 290.41 95.90 298.67 92.81 303.09 96.90 C 307.90 101.00 305.68 108.01 306.12 113.49 C 318.47 113.40 330.83 113.68 343.17 113.34 C 343.34 107.62 342.99 101.90 343.33 96.20 C 344.76 95.67 346.31 95.74 347.77 96.14 C 348.47 101.86 347.90 107.65 348.08 113.40 C 351.00 113.49 353.94 113.50 356.87 113.50 C 357.03 104.16 356.39 94.75 357.18 85.46 M 361.79 106.03 C 361.78 108.52 361.77 111.00 361.77 113.49 C 366.55 113.39 371.35 113.73 376.13 113.33 C 378.51 112.72 377.66 109.75 377.90 107.95 C 378.09 104.92 377.78 100.59 374.01 100.01 C 369.26 99.74 365.34 103.28 361.79 106.03 Z"/>
<path fill="#00468c" opacity="1.00" d=" M 444.50 85.27 C 446.03 85.48 447.97 84.81 449.24 85.78 C 449.52 96.64 449.32 107.51 449.32 118.37 C 447.73 118.40 446.13 118.42 444.55 118.43 C 444.31 107.38 444.41 96.32 444.50 85.27 Z"/>
<path fill="#00468c" opacity="1.00" d=" M 489.59 85.41 C 491.19 85.33 492.78 85.26 494.39 85.20 C 494.66 94.61 494.34 104.02 494.57 113.43 C 508.47 113.49 522.38 113.62 536.28 113.36 C 536.41 107.44 536.10 101.51 536.52 95.60 C 538.04 95.93 539.93 95.44 541.19 96.61 C 541.41 102.20 541.18 107.81 541.26 113.41 C 545.28 113.53 549.30 113.52 553.33 113.42 C 553.45 107.63 553.31 101.84 553.42 96.05 C 555.04 96.08 556.66 96.13 558.29 96.18 C 558.20 101.82 558.45 107.46 558.20 113.09 C 558.04 116.19 555.07 118.57 552.04 118.41 C 547.72 118.50 543.28 118.84 539.15 117.36 C 537.16 118.01 535.11 118.56 533.01 118.46 C 521.66 118.42 510.32 118.43 498.98 118.46 C 496.74 118.54 494.57 117.99 492.45 117.37 C 486.17 119.39 479.45 118.13 472.98 118.40 C 466.45 118.45 461.53 111.27 463.57 105.14 C 464.49 101.42 467.80 99.17 471.01 97.53 C 471.75 98.95 472.49 100.37 473.23 101.80 C 471.30 103.16 468.49 104.26 468.21 106.95 C 467.36 110.00 469.84 113.44 473.02 113.43 C 478.51 113.61 484.00 113.47 489.50 113.43 C 489.70 104.09 489.53 94.75 489.59 85.41 Z"/>
<path fill="#00468c" opacity="1.00" d=" M 369.19 86.45 C 370.64 86.48 372.10 86.52 373.55 86.58 C 373.57 88.15 373.57 89.73 373.56 91.31 C 372.10 91.35 370.65 91.37 369.20 91.39 C 369.16 89.74 369.16 88.09 369.19 86.45 Z"/>
<path fill="#00468c" opacity="1.00" d=" M 536.47 86.68 C 537.97 86.67 539.47 86.66 540.98 86.66 C 540.92 88.24 540.86 89.82 540.80 91.40 C 539.37 91.37 537.96 91.34 536.54 91.30 C 536.50 89.76 536.48 88.22 536.47 86.68 Z"/>
<path fill="#00468c" opacity="1.00" d=" M 227.78 88.74 C 229.34 88.70 230.90 88.67 232.47 88.65 C 232.72 96.28 232.60 103.92 232.54 111.55 C 230.94 111.56 229.35 111.54 227.76 111.52 C 227.77 103.93 227.74 96.33 227.78 88.74 Z"/>
<path fill="#00468c" opacity="1.00" d=" M 477.07 99.35 C 476.99 96.84 477.77 93.20 480.99 93.35 C 483.57 92.90 484.65 95.62 485.51 97.48 C 483.70 97.22 481.99 96.59 480.24 96.14 C 479.87 97.27 479.61 98.43 479.35 99.58 C 481.67 99.99 485.57 98.61 485.51 102.19 C 482.20 102.28 478.90 102.26 475.59 102.28 C 475.51 101.81 475.36 100.89 475.28 100.43 C 475.72 100.16 476.62 99.62 477.07 99.35 Z"/>
<path fill="#00468c" opacity="1.00" d=" M 203.30 95.54 C 208.83 93.60 215.53 97.25 216.42 103.14 C 216.82 108.11 216.58 113.12 216.58 118.11 C 216.74 122.50 213.24 126.56 208.97 127.33 C 206.44 127.65 203.88 127.50 201.35 127.50 C 201.33 125.91 201.31 124.30 201.52 122.72 C 203.97 122.44 206.45 122.68 208.89 122.32 C 210.46 121.58 211.20 119.91 212.17 118.58 C 207.85 118.34 202.73 119.12 199.48 115.57 C 194.19 109.94 195.33 98.19 203.30 95.54 M 204.33 100.43 C 200.63 102.16 200.96 107.04 201.76 110.37 C 203.38 114.39 208.22 113.43 211.66 113.53 C 211.59 110.15 211.91 106.74 211.44 103.38 C 210.49 100.64 206.98 98.95 204.33 100.43 Z"/>
<path fill="#00468c" opacity="1.00" d=" M 387.63 102.16 C 389.39 95.21 399.17 92.65 404.15 97.75 C 408.78 101.64 406.93 108.22 407.23 113.48 C 416.54 113.45 425.85 113.59 435.16 113.40 C 435.41 107.67 435.02 101.93 435.36 96.21 C 436.80 95.82 438.31 95.88 439.80 95.83 C 439.90 101.57 439.97 107.32 439.83 113.07 C 439.94 116.12 436.98 118.48 434.06 118.39 C 425.24 118.51 416.40 118.42 407.57 118.41 C 406.94 121.09 405.99 123.86 403.64 125.53 C 400.36 128.40 395.72 127.38 391.75 127.38 C 391.93 125.76 392.13 124.16 392.34 122.55 C 394.70 122.50 397.11 122.75 399.46 122.34 C 401.14 121.72 401.90 119.91 402.91 118.56 C 398.65 118.32 393.59 119.17 390.37 115.66 C 386.49 112.32 387.05 106.71 387.63 102.16 M 394.80 100.58 C 391.29 102.48 391.74 107.29 392.60 110.55 C 394.30 114.43 399.05 113.39 402.44 113.53 C 402.40 110.32 402.60 107.11 402.30 103.91 C 401.70 100.74 397.56 98.77 394.80 100.58 Z"/>
<path fill="#00468c" opacity="1.00" d=" M 343.37 122.30 C 344.87 122.31 346.37 122.34 347.88 122.38 C 347.84 123.87 347.83 125.37 347.67 126.86 C 346.25 127.06 344.81 127.07 343.38 127.09 C 343.36 125.49 343.36 123.89 343.37 122.30 Z"/>
<path fill="#00468c" opacity="1.00" d=" M 432.43 122.54 C 433.90 122.32 435.40 122.29 436.90 122.22 C 436.88 123.77 436.88 125.32 436.71 126.86 C 435.68 127.08 434.63 127.23 433.58 127.11 C 431.39 126.90 432.58 124.01 432.43 122.54 Z"/>
<path fill="#00468c" opacity="1.00" d=" M 550.65 122.32 C 552.18 122.34 553.72 122.37 555.26 122.43 C 555.26 123.91 555.25 125.39 555.25 126.87 C 553.72 126.88 552.19 126.88 550.67 126.88 C 550.65 125.36 550.64 123.84 550.65 122.32 Z"/>
<path fill="#00468c" opacity="1.00" d=" M 276.73 128.23 C 278.26 128.23 279.78 128.25 281.31 128.27 C 281.31 129.78 281.31 131.29 281.30 132.81 C 279.78 132.80 278.26 132.79 276.74 132.77 C 276.73 131.26 276.73 129.74 276.73 128.23 Z"/>
<path fill="#00468c" opacity="1.00" d=" M 283.61 128.28 C 285.16 128.26 286.72 128.25 288.28 128.25 C 288.24 129.72 288.23 131.19 288.09 132.66 C 286.61 132.83 285.12 132.80 283.64 132.84 C 283.61 131.32 283.61 129.80 283.61 128.28 Z"/>
<path fill="#00468c" opacity="1.00" d=" M 171.53 155.37 C 206.12 155.41 240.71 155.35 275.30 155.40 C 275.27 165.69 275.30 175.98 275.29 186.27 C 253.09 186.29 230.90 186.25 208.71 186.29 C 208.74 199.31 208.71 212.33 208.72 225.35 C 228.45 225.36 248.17 225.35 267.90 225.35 C 268.15 234.77 267.75 244.18 268.14 253.60 C 248.33 253.67 228.52 253.62 208.72 253.63 C 208.74 277.26 208.69 300.90 208.74 324.53 C 196.34 324.56 183.94 324.52 171.54 324.56 C 171.55 268.16 171.56 211.76 171.53 155.37 Z"/>
<path fill="#00468c" opacity="1.00" d=" M 322.08 155.40 C 335.98 155.36 349.89 155.38 363.79 155.39 C 384.43 211.77 405.04 268.16 425.71 324.54 C 412.14 324.53 398.57 324.56 385.00 324.52 C 381.44 313.26 377.75 302.03 374.15 290.78 C 352.28 290.77 330.41 290.79 308.54 290.77 C 304.61 302.00 300.94 313.32 297.01 324.55 C 284.18 324.51 271.35 324.58 258.51 324.51 C 279.80 268.18 300.89 211.77 322.08 155.40 M 318.25 260.78 C 333.62 260.84 348.99 260.79 364.35 260.80 C 359.48 245.97 354.71 231.10 349.86 216.27 C 347.00 207.42 344.01 198.60 341.80 189.56 C 334.50 213.48 326.32 237.11 318.25 260.78 Z"/>
<path fill="#00468c" opacity="1.00" d=" M 437.60 155.38 C 454.06 155.38 470.52 155.38 486.99 155.38 C 499.63 155.47 512.52 154.60 524.84 158.07 C 537.36 161.22 549.47 168.94 554.84 181.07 C 561.30 195.86 559.27 214.93 547.72 226.70 C 543.32 231.32 537.56 234.40 531.49 236.23 C 540.48 238.41 549.33 242.61 555.23 249.95 C 563.67 260.08 565.02 274.34 562.40 286.85 C 560.03 298.59 552.45 309.02 542.19 315.13 C 530.48 322.27 516.49 324.42 502.97 324.53 C 481.18 324.55 459.39 324.54 437.60 324.53 C 437.61 268.15 437.63 211.76 437.60 155.38 M 474.79 184.57 C 474.82 197.81 474.80 211.05 474.80 224.29 C 483.64 224.20 492.50 224.59 501.32 224.05 C 508.49 223.55 516.34 220.29 519.12 213.15 C 521.45 206.75 521.64 198.99 517.95 193.05 C 513.87 186.85 506.02 184.76 499.00 184.59 C 490.93 184.52 482.86 184.59 474.79 184.57 M 474.81 249.84 C 474.80 264.99 474.80 280.15 474.80 295.31 C 484.22 295.12 493.67 295.73 503.06 294.92 C 510.55 294.34 518.35 290.46 521.33 283.20 C 524.23 275.74 524.02 266.85 520.19 259.76 C 516.38 253.00 508.33 250.28 500.98 249.99 C 492.26 249.63 483.53 249.93 474.81 249.84 Z"/>
<path fill="#00468c" opacity="1.00" d=" M 194.35 351.39 C 198.40 350.04 200.34 356.75 195.98 357.59 C 192.05 358.69 190.52 352.25 194.35 351.39 Z"/>
<path fill="#00468c" opacity="1.00" d=" M 290.17 352.19 C 291.90 352.17 293.62 352.16 295.35 352.15 C 295.35 355.66 295.36 359.16 295.28 362.67 C 299.61 360.13 306.18 360.39 308.84 365.17 C 311.87 371.02 311.48 379.77 305.61 383.75 C 301.00 386.82 295.17 385.58 290.20 384.21 C 290.18 373.54 290.22 362.86 290.17 352.19 M 295.36 366.20 C 295.58 371.19 294.79 376.38 295.75 381.27 C 298.62 382.02 302.31 381.74 303.94 378.89 C 305.83 375.39 305.93 370.64 303.75 367.25 C 301.80 364.44 298.09 365.16 295.36 366.20 Z"/>
<path fill="#00468c" opacity="1.00" d=" M 377.21 352.17 C 378.89 352.17 380.57 352.16 382.27 352.17 C 382.28 355.71 382.29 359.26 382.23 362.80 C 385.15 361.44 388.45 360.46 391.66 361.41 C 394.55 362.14 396.33 365.12 396.33 367.99 C 396.51 373.74 396.31 379.49 396.40 385.24 C 394.72 385.23 393.05 385.23 391.38 385.24 C 391.25 379.50 391.75 373.72 391.13 368.01 C 390.23 364.04 385.03 364.80 382.45 366.57 C 382.00 372.77 382.40 379.02 382.28 385.24 C 380.58 385.23 378.89 385.23 377.20 385.23 C 377.24 374.21 377.22 363.19 377.21 352.17 Z"/>
<path fill="#00468c" opacity="1.00" d=" M 422.23 352.19 C 423.95 352.17 425.68 352.16 427.42 352.16 C 427.41 355.67 427.43 359.18 427.35 362.70 C 430.71 360.88 435.13 360.23 438.44 362.51 C 442.08 365.04 442.92 369.88 442.72 374.03 C 442.63 378.27 440.43 382.66 436.45 384.47 C 431.94 386.63 426.81 385.42 422.24 384.17 C 422.25 373.51 422.26 362.85 422.23 352.19 M 427.43 366.18 C 427.39 371.24 427.39 376.30 427.44 381.36 C 430.00 381.47 433.08 382.18 435.07 380.06 C 438.05 376.85 437.97 371.60 436.23 367.81 C 434.47 364.52 430.35 365.00 427.43 366.18 Z"/>
<path fill="#00468c" opacity="1.00" d=" M 446.33 352.28 C 447.89 350.35 451.63 351.28 451.81 353.87 C 452.43 356.41 449.29 358.69 447.12 357.18 C 445.29 356.35 444.78 353.59 446.33 352.28 Z"/>
<path fill="#00468c" opacity="1.00" d=" M 539.08 352.16 C 540.77 352.17 542.45 352.18 544.15 352.21 C 544.15 358.63 544.11 365.06 544.18 371.49 C 546.91 368.10 549.61 364.67 552.41 361.32 C 554.29 361.33 556.17 361.35 558.06 361.38 C 555.03 364.93 552.12 368.58 549.07 372.11 C 551.41 375.12 553.75 378.14 556.13 381.13 C 556.68 381.25 557.78 381.50 558.33 381.62 C 558.31 382.61 558.27 384.58 558.25 385.56 C 556.19 385.29 553.78 385.54 552.23 383.89 C 549.23 380.71 546.87 377.00 544.16 373.58 C 544.12 377.46 544.14 381.34 544.16 385.22 C 542.45 385.22 540.75 385.23 539.06 385.24 C 539.13 374.21 539.09 363.18 539.08 352.16 Z"/>
<path fill="#00468c" opacity="1.00" d=" M 171.55 354.76 C 177.40 354.79 183.25 354.77 189.11 354.78 C 189.10 356.26 189.10 357.75 189.11 359.24 C 184.96 359.24 180.82 359.24 176.68 359.24 C 176.69 361.95 176.69 364.67 176.70 367.39 C 180.37 367.39 184.05 367.38 187.73 367.38 C 187.73 368.75 187.74 370.13 187.74 371.52 C 184.05 371.51 180.36 371.51 176.67 371.51 C 176.70 376.08 176.68 380.65 176.71 385.23 C 174.99 385.23 173.26 385.23 171.54 385.24 C 171.56 375.08 171.54 364.92 171.55 354.76 Z"/>
<path fill="#00468c" opacity="1.00" d=" M 270.91 354.72 C 272.83 354.76 274.77 354.71 276.69 354.96 C 280.68 364.93 283.96 375.18 287.76 385.23 C 285.81 385.23 283.87 385.23 281.93 385.23 C 281.18 382.93 280.42 380.64 279.66 378.35 C 275.55 378.37 271.44 378.36 267.33 378.36 C 266.55 380.64 265.78 382.93 265.00 385.22 C 263.18 385.23 261.36 385.23 259.55 385.24 C 263.42 375.10 267.10 364.88 270.91 354.72 M 268.81 373.80 C 271.96 373.83 275.12 373.83 278.27 373.81 C 276.70 369.18 275.08 364.56 273.75 359.85 C 272.07 364.49 270.54 369.18 268.81 373.80 Z"/>
<path fill="#00468c" opacity="1.00" d=" M 348.75 354.78 C 355.76 355.05 364.51 353.32 369.63 359.39 C 374.64 365.88 374.39 376.61 368.11 382.20 C 362.70 386.72 355.18 384.87 348.73 385.23 C 348.75 375.08 348.72 364.93 348.75 354.78 M 354.10 359.13 C 354.10 366.36 354.11 373.58 354.10 380.81 C 358.06 380.79 363.05 381.33 365.59 377.55 C 368.26 373.30 368.11 367.50 365.99 363.06 C 363.62 358.82 358.28 359.08 354.10 359.13 Z"/>
<path fill="#00468c" opacity="1.00" d=" M 468.43 385.23 C 468.47 375.08 468.43 364.93 468.45 354.78 C 473.89 355.03 479.71 353.93 484.84 356.20 C 489.96 358.79 489.51 366.84 484.42 369.27 C 490.56 371.33 491.10 380.40 485.73 383.60 C 480.46 386.51 474.15 384.78 468.43 385.23 M 473.63 359.15 C 473.64 361.96 473.64 364.77 473.64 367.59 C 475.93 367.51 478.26 367.71 480.53 367.23 C 483.81 366.33 484.28 361.22 481.25 359.72 C 478.82 358.82 476.15 359.26 473.63 359.15 M 473.64 371.29 C 473.64 374.56 473.64 377.85 473.65 381.13 C 476.28 380.98 479.07 381.35 481.57 380.34 C 483.95 379.17 484.11 376.02 483.32 373.81 C 481.37 370.38 476.87 371.54 473.64 371.29 Z"/>
<path fill="#00468c" opacity="1.00" d=" M 238.09 355.27 C 239.48 355.22 240.87 355.18 242.26 355.14 C 242.25 357.20 242.26 359.28 242.25 361.35 C 244.08 361.34 245.91 361.33 247.74 361.34 C 247.73 362.31 247.71 364.25 247.70 365.22 C 245.88 365.20 244.06 365.20 242.25 365.20 C 242.49 370.19 241.75 375.26 242.69 380.19 C 243.88 382.27 246.44 381.07 248.34 381.22 C 248.31 382.57 248.28 383.91 248.25 385.27 C 245.82 385.44 243.31 385.90 240.91 385.25 C 238.71 384.55 237.30 382.32 237.35 380.06 C 237.13 375.11 237.34 370.15 237.28 365.20 C 236.50 365.21 234.95 365.21 234.18 365.22 C 234.14 363.92 234.11 362.63 234.08 361.35 C 234.89 361.35 236.51 361.35 237.32 361.35 C 237.56 359.32 237.82 357.29 238.09 355.27 Z"/>
<path fill="#00468c" opacity="1.00" d=" M 192.68 361.37 C 194.39 361.35 196.11 361.34 197.82 361.33 C 197.81 369.29 197.80 377.26 197.83 385.23 C 196.12 385.23 194.41 385.23 192.71 385.24 C 192.69 377.28 192.73 369.33 192.68 361.37 Z"/>
<path fill="#00468c" opacity="1.00" d=" M 207.57 363.32 C 209.89 361.54 212.70 360.88 215.59 361.02 C 215.64 362.56 215.70 364.10 215.76 365.65 C 212.90 365.42 210.04 365.76 207.62 367.39 C 207.71 373.34 207.63 379.29 207.68 385.24 C 205.98 385.23 204.29 385.23 202.59 385.24 C 202.61 377.27 202.60 369.31 202.59 361.35 C 204.28 361.34 205.97 361.33 207.67 361.33 C 207.64 361.83 207.59 362.82 207.57 363.32 Z"/>
<path fill="#00468c" opacity="1.00" d=" M 220.89 361.87 C 224.36 360.45 228.20 361.23 231.78 361.75 C 231.80 362.79 231.85 364.88 231.87 365.92 C 228.87 365.62 224.84 363.90 222.35 366.27 C 220.83 370.18 226.20 370.50 228.55 371.77 C 233.71 373.11 234.94 380.68 230.75 383.78 C 226.83 386.72 221.55 385.57 217.17 384.52 C 217.17 383.48 217.17 381.41 217.17 380.37 C 220.15 381.13 223.36 382.30 226.43 381.29 C 228.27 380.69 229.07 377.97 227.39 376.72 C 224.96 375.28 222.08 374.78 219.73 373.20 C 215.84 370.57 216.39 363.54 220.89 361.87 Z"/>
<path fill="#00468c" opacity="1.00" d=" M 401.52 361.94 C 405.94 361.22 411.27 359.90 415.08 363.01 C 418.30 366.12 417.12 371.04 417.31 375.04 C 417.51 377.63 416.26 381.43 419.80 382.11 C 419.81 383.19 419.83 384.28 419.87 385.37 C 417.29 385.79 414.61 385.68 412.71 383.65 C 409.67 385.61 405.62 386.47 402.32 384.63 C 398.18 382.40 398.11 375.46 402.26 373.21 C 405.35 371.34 409.09 371.50 412.56 371.40 C 411.93 369.52 412.35 366.82 410.38 365.70 C 407.41 364.45 404.16 365.60 401.24 366.40 C 401.32 364.91 401.42 363.42 401.52 361.94 M 404.72 376.81 C 404.01 378.27 404.26 380.39 405.83 381.22 C 407.91 382.47 410.30 381.29 412.31 380.47 C 412.28 378.52 412.26 376.57 412.23 374.62 C 409.70 374.97 406.44 374.47 404.72 376.81 Z"/>
<path fill="#00468c" opacity="1.00" d=" M 446.13 361.33 C 447.85 361.34 449.58 361.34 451.30 361.35 C 451.28 369.31 451.29 377.28 451.30 385.24 C 449.56 385.23 447.84 385.23 446.12 385.23 C 446.20 377.26 446.17 369.30 446.13 361.33 Z"/>
<path fill="#00468c" opacity="1.00" d=" M 494.42 361.93 C 499.26 361.07 506.30 359.56 509.24 364.76 C 510.86 369.34 509.71 374.32 510.11 379.07 C 509.66 380.94 511.47 381.47 512.77 382.19 C 512.75 383.02 512.71 384.68 512.69 385.51 C 510.11 385.75 507.46 385.64 505.53 383.69 C 502.54 385.58 498.60 386.41 495.33 384.72 C 490.96 382.67 490.92 375.35 495.17 373.14 C 498.25 371.34 501.94 371.53 505.39 371.39 C 504.76 369.51 505.18 366.89 503.26 365.71 C 500.34 364.47 497.12 365.57 494.24 366.36 C 494.29 364.88 494.35 363.40 494.42 361.93 M 497.57 376.68 C 496.78 378.27 497.12 380.41 498.78 381.33 C 500.64 382.14 502.93 381.76 504.60 380.66 C 505.32 378.74 505.06 376.64 505.22 374.64 C 502.64 374.94 499.47 374.53 497.57 376.68 Z"/>
<path fill="#00468c" opacity="1.00" d=" M 515.20 361.23 C 517.13 361.38 519.34 361.02 520.85 362.56 C 523.83 361.14 527.35 360.44 530.52 361.69 C 532.91 362.80 534.27 365.40 534.41 367.97 C 534.74 373.72 534.43 379.48 534.56 385.24 C 532.82 385.23 531.08 385.23 529.35 385.23 C 529.24 379.49 529.66 373.72 529.16 368.00 C 528.21 363.85 523.11 365.17 520.32 366.45 C 520.28 372.71 520.29 378.97 520.32 385.24 C 518.59 385.23 516.88 385.23 515.17 385.24 C 515.22 377.23 515.18 369.23 515.20 361.23 Z"/>
<path fill="#00468c" opacity="1.00" d=" M 313.78 361.37 C 315.47 361.35 317.16 361.35 318.85 361.35 C 318.86 366.24 318.79 371.13 318.83 376.02 C 318.82 377.94 319.15 380.25 321.09 381.20 C 323.37 382.10 325.67 380.94 327.83 380.27 C 327.83 373.96 327.83 367.66 327.83 361.36 C 329.61 361.35 331.40 361.35 333.19 361.36 C 333.17 369.36 333.17 377.35 333.19 385.35 C 331.19 385.23 329.05 385.37 327.33 384.16 C 324.20 385.51 320.46 386.41 317.27 384.72 C 314.82 383.53 313.91 380.62 313.81 378.09 C 313.69 372.52 313.84 366.94 313.78 361.37 Z"/>
</g>
<g id="#ef2e24ff">
<path fill="#ef2e24" opacity="1.00" d=" M 554.45 155.51 C 604.67 127.94 654.93 100.43 705.17 72.89 C 683.14 108.69 663.97 146.40 650.19 186.17 C 637.58 222.50 629.28 260.56 628.05 299.08 C 627.04 319.69 628.82 340.34 631.78 360.74 C 608.57 326.88 595.58 286.08 595.38 245.01 C 595.03 214.25 601.72 183.44 614.75 155.57 C 594.65 155.48 574.54 155.62 554.45 155.51 Z"/>
</g>
</svg>