<?xml version="1.0" encoding="utf-8"?>
<!-- Generator: Adobe Illustrator 26.5.0, SVG Export Plug-In . SVG Version: 6.00 Build 0)  -->
<svg version="1.1" id="Layer_1" xmlns="http://www.w3.org/2000/svg" xmlns:xlink="http://www.w3.org/1999/xlink" x="0px" y="0px"
	 viewBox="0 0 512 512" style="enable-background:new 0 0 512 512;" xml:space="preserve">
<style type="text/css">
	.st0{clip-path:url(#SVGID_00000029010418279452877140000005020855998619731383_);fill:#1B4298;}
	.st1{clip-path:url(#SVGID_00000043454083442949061800000014041764301872856761_);fill:#1B4298;}
	.st2{clip-path:url(#SVGID_00000124860418725414499280000016470084454996385696_);fill:#1B4298;}
	.st3{clip-path:url(#SVGID_00000049934691563608768280000013104483940278220432_);fill:#1B4298;}
	.st4{clip-path:url(#SVGID_00000173142652949743766570000018208535093388861826_);fill:#1B4298;}
	.st5{clip-path:url(#SVGID_00000020374462397849098020000003297274033987629453_);fill:#1B4298;}
	.st6{clip-path:url(#SVGID_00000183239981344740277250000015657580043405854866_);fill:#1B4298;}
	.st7{clip-path:url(#SVGID_00000165216386644244950300000012896780034350746295_);fill:#1B4298;}
	.st8{clip-path:url(#SVGID_00000097467199800332520520000002056136205542935728_);fill:#1B4298;}
	.st9{clip-path:url(#SVGID_00000018223455696106777510000000360770827118161835_);fill:#1B4298;}
	.st10{clip-path:url(#SVGID_00000103982214270488291040000009904188064055834010_);fill:#1B4298;}
	.st11{clip-path:url(#SVGID_00000117674566536894048350000001255592670846031805_);fill:#1B4298;}
	.st12{clip-path:url(#SVGID_00000178900923200039076140000005362777471729167024_);fill:#1B4298;}
	.st13{clip-path:url(#SVGID_00000160896776758410061700000016781770646642311831_);fill:#1B4298;}
	.st14{fill:url(#SVGID_00000040547987719075418320000003907517578074024839_);}
	.st15{fill:url(#SVGID_00000045603186728704404820000006886327307404420521_);}
	.st16{fill:url(#SVGID_00000125584846817877799370000012920735494369582772_);}
	.st17{fill:url(#SVGID_00000157266980410847984470000018136313651780527494_);}
	.st18{fill:url(#SVGID_00000024721837594608596130000006989552901515443133_);}
	.st19{fill:url(#SVGID_00000060021034592722719830000005478908988955624879_);}
</style>
<g id="XMLID_1_">
	<g id="XMLID_2_">
		<g>
			<defs>
				<rect id="SVGID_1_" y="213.78" width="512" height="84.44"/>
			</defs>
			<clipPath id="SVGID_00000068679149633683674290000015338359337820104064_">
				<use xlink:href="#SVGID_1_"  style="overflow:visible;"/>
			</clipPath>
			<path id="XMLID_4_" style="clip-path:url(#SVGID_00000068679149633683674290000015338359337820104064_);fill:#1B4298;" d="
				M381.55,257.54c-1.54,0-2.24,1.4-2.24,2.24c0,2.38,2.24,2.95,7.15,4.49C386.45,262.31,383.93,257.54,381.55,257.54
				 M375.65,275.22h-8.28c-8.7,0-13.33-3.23-13.33-10.52c0-5.33,3.09-10.52,3.51-11.08l4.07,2.1c-0.42,0.98-2.52,4.49-2.52,7.86
				c0,3.79,2.67,6.59,7.57,6.59h11.78c4.77,0,6.45-1.96,6.59-2.24c-5.75-1.12-10.1-1.54-10.1-6.17c0-3.93,4.07-9.4,8-9.4
				c3.37,0,5.05,2.81,6.03,4.49c1.96,3.23,2.1,5.05,2.1,6.59C391.08,268.76,387.3,275.22,375.65,275.22"/>
		</g>
		<g>
			<defs>
				<rect id="SVGID_00000082366187685499949570000012592270584530569890_" y="213.78" width="512" height="84.44"/>
			</defs>
			<clipPath id="SVGID_00000147898811772452091010000010823608755791068577_">
				<use xlink:href="#SVGID_00000082366187685499949570000012592270584530569890_"  style="overflow:visible;"/>
			</clipPath>
			
				<polygon id="XMLID_7_" style="clip-path:url(#SVGID_00000147898811772452091010000010823608755791068577_);fill:#1B4298;" points="
				389.68,246.04 386.17,242.53 382.81,245.9 379.44,242.53 375.93,246.18 379.44,249.69 382.81,246.32 386.31,249.69 			"/>
		</g>
		<g>
			<defs>
				<rect id="SVGID_00000132046099787234256240000002338121149883231647_" y="213.78" width="512" height="84.44"/>
			</defs>
			<clipPath id="SVGID_00000152957908745567406430000005909104445493628348_">
				<use xlink:href="#SVGID_00000132046099787234256240000002338121149883231647_"  style="overflow:visible;"/>
			</clipPath>
			
				<polygon id="XMLID_8_" style="clip-path:url(#SVGID_00000152957908745567406430000005909104445493628348_);fill:#1B4298;" points="
				512,275.22 506.81,275.22 506.81,243.94 512,242.81 			"/>
		</g>
		<g>
			<defs>
				<rect id="SVGID_00000105398492306004264530000016983420298757340827_" y="213.78" width="512" height="84.44"/>
			</defs>
			<clipPath id="SVGID_00000140701772456745695260000003260300384410766249_">
				<use xlink:href="#SVGID_00000105398492306004264530000016983420298757340827_"  style="overflow:visible;"/>
			</clipPath>
			<path id="XMLID_9_" style="clip-path:url(#SVGID_00000140701772456745695260000003260300384410766249_);fill:#1B4298;" d="
				M474.97,270.17h-2.1c-4.21,0-5.75-1.68-6.59-2.52c2.38-4.21,3.23-6.31,5.33-6.31c1.82,0,2.52,1.82,4.63,5.75
				C477.35,268.76,476.37,270.17,474.97,270.17 M501.2,269.89v-27.07l-5.19,1.26v20.76c0,3.09,0.42,4.35,0.42,4.63
				c-0.14,0-1.68,0.84-4.49,0.84h-10.1c0.14-0.28,0.56-2.52-1.12-5.61c-2.81-4.91-4.35-8.84-8.28-8.84
				c-4.91,0-6.87,4.77-10.24,10.38c-0.98,1.54-1.82,4.07-5.89,4.07h-8.42c-0.14-0.14-0.56-0.84-0.56-1.82
				c0-6.59-2.67-10.52-5.33-12.48l-3.51,3.51c2.67,1.96,3.93,4.21,3.93,8.28c0,1.82,0.28,2.24,0.56,2.52h-6.03
				c-0.14-0.42-0.42-0.98-0.42-2.24c0-5.19-2.95-7.57-4.63-9.12l-3.51,3.51c0.7,0.42,3.37,1.96,3.37,5.33
				c0,1.68,0.28,2.24,0.42,2.52h-5.61c-0.14-0.28-0.42-0.98-0.42-2.24c0-5.19-2.95-7.57-4.63-9.12l-3.37,3.51
				c0.7,0.56,3.37,2.1,3.37,5.61c0,1.12,0.28,2.1,0.42,2.24h-13.33c-0.28-4.35-2.52-8-5.05-9.82l-3.65,3.65
				c2.24,2.38,3.51,5.19,3.51,8.98c0,5.89-3.65,9.54-10.1,10.66l0.42,3.37c10.24-0.56,14.59-6.31,14.87-11.78h49.38
				c3.79,0,5.47-1.96,5.89-2.67c0.42,0.56,2.38,2.67,7.72,2.67h20.62c5.75,0,9.68-1.68,9.96-1.68
				C501.76,273.25,501.2,271.85,501.2,269.89"/>
		</g>
	</g>
	<g id="XMLID_12_">
		<g>
			<defs>
				<path id="SVGID_00000027581539543747355700000010489916336442338720_" d="M496.15,243.94v20.76c0,3.09,0.42,4.35,0.42,4.63
					c-0.14,0-1.68,0.84-4.49,0.84h-10.24c0.14-0.28,0.56-2.67-1.12-5.61c-2.81-4.91-4.35-8.84-8.28-8.84
					c-4.91,0-6.87,4.77-10.24,10.38c-0.98,1.54-1.82,4.07-5.89,4.07h-8.42c-0.14-0.14-0.56-0.84-0.56-1.82
					c0-6.59-2.67-10.52-5.33-12.48l-3.51,3.51c2.67,1.96,3.93,4.21,3.93,8.28c0,1.82,0.28,2.24,0.56,2.52h-6.03
					c-0.14-0.42-0.42-0.98-0.42-2.24c0-5.19-2.95-7.57-4.63-9.12l-3.51,3.51c0.7,0.42,3.37,1.96,3.37,5.33
					c0,1.68,0.28,2.24,0.42,2.52h-5.61c-0.14-0.28-0.42-0.98-0.42-2.24c0-5.19-2.95-7.57-4.63-9.12l-3.37,3.51
					c0.7,0.56,3.37,2.1,3.37,5.61c0,1.12,0.28,2.1,0.42,2.24h-13.33c-0.28-4.35-2.52-8-5.05-9.82l-3.65,3.65
					c2.24,2.38,3.51,5.19,3.51,8.98c0,5.89-3.65,9.54-10.1,10.66l0.42,3.37c10.24-0.56,14.59-6.31,14.87-11.78h49.38
					c3.79,0,5.47-1.96,5.89-2.81c0.42,0.56,2.38,2.81,7.72,2.81h20.62c5.75,0,9.68-1.68,9.96-1.68c-0.14-0.28-0.56-1.54-0.56-3.65
					v-27.07L496.15,243.94L496.15,243.94z M466.27,267.64c2.38-4.21,3.23-6.31,5.33-6.31c1.82,0,2.38,1.82,4.63,5.75
					c0.98,1.82,0,3.09-1.26,3.09h-2.1C468.66,270.17,467.25,268.48,466.27,267.64"/>
			</defs>
			<clipPath id="SVGID_00000105400988270825265740000014192604099834108602_">
				<use xlink:href="#SVGID_00000027581539543747355700000010489916336442338720_"  style="overflow:visible;"/>
			</clipPath>
			<path id="XMLID_16_" style="clip-path:url(#SVGID_00000105400988270825265740000014192604099834108602_);fill:#1B4298;" d="
				M471.74,261.33c-2.1,0-2.95,2.1-5.33,6.31c0.84,0.84,2.38,2.52,6.59,2.52h2.1c1.26,0,2.24-1.26,1.26-3.09
				C474.13,263.15,473.42,261.33,471.74,261.33"/>
		</g>
	</g>
	<g id="XMLID_17_">
		<g>
			<defs>
				<rect id="SVGID_00000115485680716305050510000008397217482957721729_" y="213.78" width="512" height="84.44"/>
			</defs>
			<clipPath id="SVGID_00000183936782903468195140000010758773058812319152_">
				<use xlink:href="#SVGID_00000115485680716305050510000008397217482957721729_"  style="overflow:visible;"/>
			</clipPath>
			
				<polygon id="XMLID_19_" style="clip-path:url(#SVGID_00000183936782903468195140000010758773058812319152_);fill:#1B4298;" points="
				437.94,248.14 434.43,244.64 431.06,248 427.7,244.64 424.19,248.28 427.7,251.79 431.06,248.43 434.57,251.79 			"/>
		</g>
		<g>
			<defs>
				<rect id="SVGID_00000093875925844830633750000004811235933043639222_" y="213.78" width="512" height="84.44"/>
			</defs>
			<clipPath id="SVGID_00000057125471756330615410000006943054126681268124_">
				<use xlink:href="#SVGID_00000093875925844830633750000004811235933043639222_"  style="overflow:visible;"/>
			</clipPath>
			
				<polygon id="XMLID_20_" style="clip-path:url(#SVGID_00000057125471756330615410000006943054126681268124_);fill:#1B4298;" points="
				434.57,242.39 430.92,238.89 427.56,242.53 431.06,246.04 			"/>
		</g>
		<g>
			<defs>
				<rect id="SVGID_00000152966901726284618150000014926137843865670323_" y="213.78" width="512" height="84.44"/>
			</defs>
			<clipPath id="SVGID_00000062152205908584840960000013510590849677599109_">
				<use xlink:href="#SVGID_00000152966901726284618150000014926137843865670323_"  style="overflow:visible;"/>
			</clipPath>
			<path id="XMLID_21_" style="clip-path:url(#SVGID_00000062152205908584840960000013510590849677599109_);fill:#1B4298;" d="
				M124.14,257.54c-3.09,0-4.35,2.38-4.35,4.77h8.84C128.63,259.65,127.09,257.54,124.14,257.54 M133.68,266.38h-13.89
				c0.28,2.81,2.52,4.91,5.89,4.91c2.95,0,4.91-1.26,5.19-1.4l1.82,3.93c-0.42,0.14-3.09,1.96-7.57,1.96
				c-6.59,0-10.8-4.49-10.8-11.22c0-6.17,3.23-11.22,9.96-11.22c6.17,0,9.82,4.35,9.82,10.24
				C133.96,264.7,133.68,265.96,133.68,266.38"/>
		</g>
		<g>
			<defs>
				<rect id="SVGID_00000021096494966583147360000010224062407067323526_" y="213.78" width="512" height="84.44"/>
			</defs>
			<clipPath id="SVGID_00000078730381412458141720000012503056734022366087_">
				<use xlink:href="#SVGID_00000021096494966583147360000010224062407067323526_"  style="overflow:visible;"/>
			</clipPath>
			<path id="XMLID_24_" style="clip-path:url(#SVGID_00000078730381412458141720000012503056734022366087_);fill:#1B4298;" d="
				M47.83,268.34v-3.65c-0.7,0.56-2.52,0.98-4.07,1.4c-1.82,0.42-3.65,1.12-3.65,2.67c0,1.96,1.96,2.67,3.93,2.67
				c2.1,0,3.79-0.56,3.93-0.7C47.97,270.59,47.83,269.89,47.83,268.34 M44.19,275.78c-4.63,0-9.68-1.68-9.68-6.73
				c0-5.89,6.31-6.31,10.24-7.15c1.82-0.42,3.09-0.98,3.09-2.24c0-1.12-1.4-1.96-3.65-1.96c-2.95,0-5.75,1.26-6.03,1.4l-1.68-3.93
				c0.42-0.14,4.07-1.82,8-1.82c5.33,0,8.42,2.81,8.42,7.86v9.4c0,2.24,0.28,3.09,0.42,3.51C53.02,274.1,48.68,275.78,44.19,275.78"
				/>
		</g>
		<g>
			<defs>
				<rect id="SVGID_00000115477895547536283870000015240566753703741592_" y="213.78" width="512" height="84.44"/>
			</defs>
			<clipPath id="SVGID_00000160871015973490461110000007183042720840591771_">
				<use xlink:href="#SVGID_00000115477895547536283870000015240566753703741592_"  style="overflow:visible;"/>
			</clipPath>
			<path id="XMLID_27_" style="clip-path:url(#SVGID_00000160871015973490461110000007183042720840591771_);fill:#1B4298;" d="
				M90.34,275.22v-13.47c0-2.52-1.4-4.07-3.93-4.07c-1.96,0-3.79,1.12-4.63,1.54v15.85h-5.19V243.8l5.19-1.26v12.2
				c0.28-0.14,2.67-1.68,6.03-1.68c4.91,0,7.72,2.95,7.72,7.57v14.31h-5.19V275.22z"/>
		</g>
		<g>
			<defs>
				<rect id="SVGID_00000052069898999506996010000015283492107716394636_" y="213.78" width="512" height="84.44"/>
			</defs>
			<clipPath id="SVGID_00000173125046351431347180000007495117258113522064_">
				<use xlink:href="#SVGID_00000052069898999506996010000015283492107716394636_"  style="overflow:visible;"/>
			</clipPath>
			<path id="XMLID_28_" style="clip-path:url(#SVGID_00000173125046351431347180000007495117258113522064_);fill:#1B4298;" d="
				M148.41,257.68c-4.07,0-5.61,3.09-5.61,6.73s2.1,6.73,6.03,6.73c0.98,0,1.96-0.28,2.81-0.56v-9.68c0-1.4,0.14-2.52,0.14-2.67
				C151.64,258.24,150.37,257.68,148.41,257.68 M156.69,258.67v25.67l-5.19,0.7v-9.96c-1.26,0.42-2.67,0.7-3.93,0.7
				c-5.75,0-10.66-4.63-10.66-11.22c0-6.59,4.49-11.22,11.5-11.22c3.93,0,7.86,1.4,8.42,1.54
				C156.83,255.3,156.69,257.12,156.69,258.67"/>
		</g>
		<g>
			<defs>
				<rect id="SVGID_00000019669891084322669660000002775952575345731751_" y="213.78" width="512" height="84.44"/>
			</defs>
			<clipPath id="SVGID_00000082332232768730837250000017794074481809350315_">
				<use xlink:href="#SVGID_00000019669891084322669660000002775952575345731751_"  style="overflow:visible;"/>
			</clipPath>
			<path id="XMLID_31_" style="clip-path:url(#SVGID_00000082332232768730837250000017794074481809350315_);fill:#1B4298;" d="
				M25.53,275.22v-13.47c0-2.38-1.26-3.93-3.79-3.93c-1.82,0-3.65,0.98-3.93,1.12c0,0.28,0.28,1.4,0.28,3.23v13.05h-5.19v-13.61
				c0-2.38-1.26-3.93-3.79-3.93c-1.96,0-3.65,0.84-3.79,0.98c0,0.14,0.14,0.84,0.14,2.1v14.45H0.28v-16.97
				c0-1.26-0.28-2.52-0.42-2.81c0.56-0.14,5.47-2.24,9.68-2.24c4.49,0,6.03,1.82,6.31,2.1c0.28-0.28,3.37-2.1,6.73-2.1
				c4.77,0,8,2.81,8,7.43v14.59H25.53z"/>
		</g>
		<g>
			<defs>
				<rect id="SVGID_00000091000735933071295320000009789275882033714572_" y="213.78" width="512" height="84.44"/>
			</defs>
			<clipPath id="SVGID_00000142878241644894269930000017953997161270244237_">
				<use xlink:href="#SVGID_00000091000735933071295320000009789275882033714572_"  style="overflow:visible;"/>
			</clipPath>
			<path id="XMLID_32_" style="clip-path:url(#SVGID_00000142878241644894269930000017953997161270244237_);fill:#1B4298;" d="
				M112.22,258.24c-0.7-0.14-1.82-0.42-2.81-0.42c-2.1,0-3.93,0.56-4.07,0.56c0,0.14,0.28,1.12,0.28,2.95v14.03h-5.19v-15.43
				c0-2.52-0.42-4.07-0.42-4.21c0.56-0.28,5.19-2.38,9.82-2.38c1.4,0,2.81,0.14,3.93,0.42L112.22,258.24z"/>
		</g>
		<g>
			<defs>
				<rect id="SVGID_00000153679843227233388400000005865335515207294883_" y="213.78" width="512" height="84.44"/>
			</defs>
			<clipPath id="SVGID_00000024708209768128368280000008111126741514655644_">
				<use xlink:href="#SVGID_00000153679843227233388400000005865335515207294883_"  style="overflow:visible;"/>
			</clipPath>
			<path id="XMLID_33_" style="clip-path:url(#SVGID_00000024708209768128368280000008111126741514655644_);fill:#1B4298;" d="
				M64.25,275.78c-3.65,0-6.73-1.26-7.15-1.4l1.54-4.07c0.14,0,2.38,1.26,4.63,1.26c2.52,0,3.79-0.98,3.79-2.38
				c0-0.98-0.7-1.96-2.38-2.52c-0.56-0.28-1.54-0.56-2.1-0.84c-2.24-0.84-4.77-2.38-4.77-5.89c0-4.21,3.93-6.45,7.86-6.45
				c3.51,0,5.75,1.12,6.31,1.26l-1.4,3.93c-0.14,0-2.38-0.98-4.77-0.98c-1.4,0-2.67,0.56-2.67,1.82c0,1.26,0.84,1.82,2.38,2.38
				c0.56,0.28,1.54,0.56,2.24,0.84c2.81,1.12,5.19,2.81,5.19,6.31C72.8,273.67,68.73,275.78,64.25,275.78"/>
		</g>
	</g>
	
		<radialGradient id="SVGID_00000168114155430682459310000000454323401065946516_" cx="5.2149" cy="506.1841" r="0.5779" gradientTransform="matrix(55.0319 0 0 -55.0319 28.7573 28129.3359)" gradientUnits="userSpaceOnUse">
		<stop  offset="0" style="stop-color:#FFDD00"/>
		<stop  offset="1" style="stop-color:#F05133"/>
	</radialGradient>
	<path style="fill:url(#SVGID_00000168114155430682459310000000454323401065946516_);" d="M326.14,260.07
		c-5.33,2.81-8.28,7.57-10.38,12.91c5.61,1.26,11.22,1.54,16.55-1.26c5.33-2.81,8.28-7.57,10.38-12.91
		c-2.38-0.56-4.91-0.98-7.29-0.98C332.17,257.96,329.08,258.52,326.14,260.07"/>
	
		<radialGradient id="SVGID_00000069369851264027273990000012693328591397844404_" cx="5.4153" cy="506.075" r="0.5779" gradientTransform="matrix(64.6332 0 0 -64.6332 -41.404 32975.3711)" gradientUnits="userSpaceOnUse">
		<stop  offset="0" style="stop-color:#FFDD00"/>
		<stop  offset="1" style="stop-color:#F05133"/>
	</radialGradient>
	<path style="fill:url(#SVGID_00000069369851264027273990000012693328591397844404_);" d="M312.25,246.32
		c-4.63,7.29-4.63,14.17-3.65,19.78c5.47-1.68,11.64-4.49,16.27-11.92c4.63-7.29,4.49-14.17,3.65-19.78
		C323.05,236.08,316.88,239.03,312.25,246.32"/>
	
		<radialGradient id="SVGID_00000127003217790752074660000003371280849169320079_" cx="5.6256" cy="506.0464" r="0.5779" gradientTransform="matrix(80.8714 0 0 -80.8714 -156.9846 41188.9258)" gradientUnits="userSpaceOnUse">
		<stop  offset="0" style="stop-color:#FFDD00"/>
		<stop  offset="1" style="stop-color:#F05133"/>
	</radialGradient>
	<path style="fill:url(#SVGID_00000127003217790752074660000003371280849169320079_);" d="M289.81,241.41
		c-0.14,9.68,4.07,17.39,8.14,22.86c4.21-5.47,8.7-12.91,8.84-22.58c0.14-10.52-4.91-18.38-8.14-22.86
		C295.14,223.32,289.95,230.89,289.81,241.41"/>
	
		<radialGradient id="SVGID_00000102511823002057901440000017995218242385632412_" cx="5.792" cy="506.0538" r="0.5781" gradientTransform="matrix(104.9835 0 0 -104.9835 -321.343 53394.5039)" gradientUnits="userSpaceOnUse">
		<stop  offset="0" style="stop-color:#FFDD00"/>
		<stop  offset="1" style="stop-color:#F05133"/>
	</radialGradient>
	<path style="fill:url(#SVGID_00000102511823002057901440000017995218242385632412_);" d="M263.43,245.34
		c5.89,10.94,14.87,16.97,23.29,21.88c0.7-9.68,0.28-20.76-5.47-31.56c-6.31-11.78-16.55-18.1-23.29-21.88
		C257.54,221.63,256.98,233.28,263.43,245.34"/>
	
		<radialGradient id="SVGID_00000001641174454746200250000016145365630795237508_" cx="5.8831" cy="506.0768" r="0.5779" gradientTransform="matrix(151.1259 0 0 -151.1259 -607.6057 76757.125)" gradientUnits="userSpaceOnUse">
		<stop  offset="0" style="stop-color:#FFDD00"/>
		<stop  offset="0.9438" style="stop-color:#F05133"/>
		<stop  offset="1" style="stop-color:#F05133"/>
	</radialGradient>
	<path style="fill:url(#SVGID_00000001641174454746200250000016145365630795237508_);" d="M207.04,233.98
		c5.33,9.12,15.43,22.58,30.44,31.14c14.45,8.14,30.72,10.24,42.36,10.1c-6.17-10.24-15.99-23-30.44-31.14
		c-14.17-8-30.44-10.1-41.38-10.1C207.75,233.98,207.47,233.98,207.04,233.98"/>
	
		<radialGradient id="SVGID_00000020391737445709206710000007876088736904884118_" cx="5.9203" cy="506.0945" r="0.5779" gradientTransform="matrix(194.6537 0 0 -194.6537 -873.8231 98798.3047)" gradientUnits="userSpaceOnUse">
		<stop  offset="0" style="stop-color:#FFDD00"/>
		<stop  offset="0.8708" style="stop-color:#F05133"/>
		<stop  offset="1" style="stop-color:#F05133"/>
	</radialGradient>
	<path style="fill:url(#SVGID_00000020391737445709206710000007876088736904884118_);" d="M166.79,285.32
		c16.55,7.43,36.19,12.91,54.85,12.91c14.87,0,32.82-2.95,54.85-12.91c-24.13-10.8-40.96-12.91-54.85-12.91
		C203.54,272.27,183.06,277.74,166.79,285.32"/>
</g>
</svg>
