<?xml version="1.0" encoding="utf-8"?>
<!-- Generator: Adobe Illustrator 24.0.2, SVG Export Plug-In . SVG Version: 6.00 Build 0)  -->
<svg version="1.0" id="Layer_1" xmlns="http://www.w3.org/2000/svg" xmlns:xlink="http://www.w3.org/1999/xlink" x="0px" y="0px"
	 viewBox="0 0 300 280" enable-background="new 0 0 300 280" xml:space="preserve">
<g>
	<path fill="#392B79" d="M110.34,127.68c0.04-5.22,0-10.47,0.04-15.68c1.62,0.12,3.44,0.39,4.56,1.7c1.31,1.39,0.89,3.44,0.97,5.18
		c0.08,3.44-0.19,6.92,0.19,10.35c2.67,0.27,5.33,0.12,8,0.15c1.55-0.04,3.09,0.15,4.6-0.23c0.31-0.54,0.27-1.2,0.27-1.78
		c0-2.55,0-5.14,0-7.69c1.85,0,3.67,0,5.52,0c0,3.09,0.08,6.18-0.04,9.27c-0.04,1.62-1,3.21-2.51,3.9c-1.58,0.81-3.4,0.85-5.18,0.85
		c-3.36-0.04-6.68,0-10.04,0c-1.85-0.04-3.9-0.46-5.25-1.89C110.49,130.69,110.34,129.11,110.34,127.68z"/>
	<path fill="#392B79" d="M159.13,112.89c1.12-0.73,2.43-0.77,3.71-0.93c0,5.37,0,10.74,0,16.11c0,1.39-0.31,2.9-1.31,3.9
		c-1.39,1.39-3.48,1.7-5.37,1.74c-3.13,0-6.3,0-9.43,0c-0.46,1.78-1.66,3.28-3.32,4.1c-2.12,1.2-4.56,1.62-6.95,1.93
		c-0.15-1.16-0.31-2.28-0.43-3.44c1.43-0.42,3.01-0.73,4.21-1.7c0.93-0.73,0.93-1.97,0.93-3.05c0-4.02-0.04-8.04,0-12.01
		c2.12,0.08,4.75,0.81,5.37,3.13c0.39,2.2,0.08,4.44,0.15,6.68c3.52-0.12,7.03,0.23,10.51-0.23c0.23-4.33,0-8.69,0.12-13.02
		C157.35,114.78,158.05,113.54,159.13,112.89z"/>
	<path fill="#392B79" d="M165.47,112.04c1.85,0,3.67,0,5.52,0c-0.04,5.72,0,11.44,0,17.19c0,1.16-0.35,2.36-1.28,3.13
		c-1.16,1.04-2.74,1.2-4.21,1.35C165.43,126.48,165.47,119.26,165.47,112.04z"/>
	<path fill="#392B79" d="M206.03,112c1.62,0.15,3.55,0.35,4.64,1.74c1.04,1.2,0.89,2.82,0.89,4.29c0,2.67-0.12,5.37,0.04,8.04
		c0.12,1.85,1.89,3.05,3.63,3.13c2.59,0.19,5.22,0.04,7.84,0.08c0-3.25,0-6.45,0-9.7c1.85-0.04,3.67,0,5.52,0c0,3.25,0,6.49,0,9.74
		c2.9,0,5.79,0,8.69,0c0.85,0,1.74,0.04,2.51-0.31c0.5-2.24-0.27-4.64,0.5-6.84c0.85-2.01,3.25-2.55,5.22-2.63c0,2.86,0,5.68,0,8.54
		c0,1.35-0.27,2.82-1.27,3.82c-1.43,1.35-3.48,1.74-5.41,1.78c-6.95,0-13.91,0-20.86,0c-3.32,0.15-7.03-0.08-9.43-2.74
		c-2.59,2.63-6.45,2.82-9.89,2.7c-4.06-0.15-8.31,0.5-12.17-1.12c-2.16-0.85-3.67-2.9-3.94-5.18c-0.27-2.59-0.12-5.22-0.12-7.8
		c1.85,0,3.67,0,5.52,0c0.08,2.4-0.12,4.79,0.12,7.15c0.12,1.55,1.51,2.59,2.94,2.82c2.16,0.35,4.37,0.12,6.57,0.19
		c1.97-0.04,4.09,0.15,5.95-0.66c1.58-0.66,2.51-2.36,2.51-4.02C206.07,120.65,205.99,116.32,206.03,112z"/>
	<path fill="#392B79" d="M92.22,113.62c1.78-0.89,4.91,0.04,4.75,2.4c-0.66,2.67-4.98,2.86-6.18,0.5
		C90.21,115.36,91.1,114.04,92.22,113.62z"/>
	<path fill="#392B79" d="M224.3,113.62c1.78-0.85,4.87,0.12,4.64,2.43c-0.62,2.7-5.18,2.86-6.22,0.35
		C222.29,115.2,223.22,113.97,224.3,113.62z"/>
	<path fill="#392B79" d="M194.98,117.21c1.55-0.04,3.05,0,4.6-0.04c-0.39,0.77-0.77,1.55-1.16,2.36c0.85,0.43,2.09,0.81,2.09,1.97
		c-0.27,1.58-1.12,2.97-1.7,4.44c-1.51,0-3.01,0-4.56,0c0.39-0.81,0.77-1.66,1.16-2.47c-0.85-0.42-2.12-0.85-2.12-2.05
		C193.51,119.92,194.44,118.6,194.98,117.21z"/>
	<path fill="#392B79" d="M107.01,119.61c-4.87-0.04-9.74,0-14.6,0c-3.09,0.04-6.26,0.35-8.96,1.89c0-1.51,0-3.01,0-4.48
		c-1.78,0-3.59,0-5.37,0c0,3.82,0,7.65,0,11.47c0,1.2-0.08,2.43-0.73,3.48c-0.85,1.27-2.4,1.89-3.86,2.01
		c-2.7,0.27-5.41,0.12-8.11,0.15c-1.7,0-3.67-0.15-4.75-1.62c-1.2-1.78,0-4.21-1.27-5.95c-1.08-1.58-3.09-1.93-4.87-2.05
		c0.19,3.25-0.58,6.72,0.93,9.74c1.58,2.82,5.06,3.63,8.07,3.79c3.48,0.08,6.92,0.04,10.39,0.04c3.25-0.08,6.95-1.16,8.5-4.33
		c6.07-0.04,12.13,0,18.2,0c1.78,0,3.71-0.39,5.06-1.66c1.08-0.97,1.39-2.51,1.39-3.94C107.01,125.25,106.98,122.43,107.01,119.61z
		 M101.22,129.07c-0.73,0.19-1.47,0.23-2.2,0.23c-5.22-0.04-10.43,0-15.65,0c0.15-1.27,0.19-2.74,1.16-3.71
		c1.35-1.39,3.4-1.7,5.22-1.93c3.9-0.35,7.8-0.15,11.71-0.19C101.34,125.32,101.72,127.26,101.22,129.07z"/>
	<path fill="#392B79" d="M120.5,138.61c-0.89-1.62,0.85-3.25,2.43-3.28c1.39-0.23,2.67,0.46,3.59,1.43c1.39-1.85,4.6-2.05,5.95-0.08
		c0.93,1.51-0.62,3.25-2.16,3.32c-1.43,0.35-2.86-0.27-3.75-1.39C125.09,140.47,121.77,140.74,120.5,138.61z"/>
	<path fill="#392B79" d="M236.97,135.48c1.85-0.77,4.94,0.27,4.6,2.63c-0.81,2.63-5.18,2.74-6.3,0.31
		C234.73,137.15,235.82,135.87,236.97,135.48z"/>
	<path fill="#01A297" d="M226.31,137.88c1.55,0.12,3.25,0.19,4.37,1.43c0.85,0.77,0.77,2.01,0.85,3.05c0.04,3.01-0.04,5.99,0.04,9
		c2.51-0.19,5.1,0.27,7.57-0.31c1.85-0.77,1.04-3.17,1.24-4.71c1.7,0.04,3.44,0.04,5.14,0c0,1.66,0.27,3.44-0.42,4.98
		c-0.43,0.77-0.93,1.51-1.51,2.16c0.73,0.81,1.7,1.62,1.82,2.78c0.23,1.74,0.12,3.52,0.12,5.25c-1.7-0.04-3.44-0.04-5.14,0
		c-0.04-1.55,0.15-3.17-0.19-4.67c-0.5-1.27-2.09-1.35-3.25-1.31c-1.85,0.08-3.71-0.12-5.45-0.77c0.04,2.24,0.04,4.52,0.04,6.76
		c-1.74,0-3.48-0.04-5.22,0C226.31,153.64,226.27,145.76,226.31,137.88z"/>
	<path fill="#01A297" d="M79.93,146.42c1.74,0,3.48,0,5.22-0.04c0.04,2.9-0.08,5.83,0.04,8.73c0,1.16,1.04,2.12,2.16,2.12
		c2.43,0.12,4.91,0,7.34,0.08c0.15-2.78-0.23-5.6,0.23-8.34c0.62-2.12,3.09-2.47,4.94-2.59c0.04,7.22,0,14.41,0.04,21.63
		c-1.74,0.04-3.48,0.04-5.18,0c0-2.12,0-4.25,0-6.37c-2.55-0.08-5.1,0-7.65-0.08c-1.89-0.12-4.02-0.39-5.41-1.78
		c-1.39-1.27-1.66-3.24-1.7-5.02C79.93,151.94,79.93,149.2,79.93,146.42z"/>
	<path fill="#01A297" d="M205.88,148.04c2.05-1.74,4.87-1.85,7.46-1.85c2.7,0.04,5.64-0.23,8.07,1.24c1.78,0.97,2.9,2.97,2.94,4.98
		c0.08,3.09,0.04,6.14,0.04,9.23c-1.78-0.12-4.09-0.35-4.87-2.28c-0.73-2.36,0-4.91-0.5-7.34c-0.31-1.12-1.51-1.55-2.55-1.51
		c-1.97,0-3.98-0.19-5.91,0.19c-1.62,0.39-1.55,2.36-1.55,3.63c-0.12,1.89,0.5,4.09-0.77,5.72c-1,1.39-2.86,1.43-4.4,1.55
		c0-2.97-0.04-5.91,0-8.85C203.87,151.02,204.45,149.16,205.88,148.04z"/>
	<path fill="#01A297" d="M56.14,148.62c1.62-1.58,3.94-2.12,6.14-2.16c2.9-0.08,5.79,0,8.69-0.04c0.04,1.43,0.04,2.86,0.08,4.29
		c-2.94,0.04-5.83-0.04-8.77,0c-1.04-0.04-2.16,0.46-2.43,1.55c-0.5,2.36,0.27,4.87-0.54,7.19c-0.85,1.85-3.05,2.09-4.83,2.2
		c-0.04-2.7-0.04-5.37-0.04-8.07C54.51,151.79,54.86,149.89,56.14,148.62z"/>
	<path fill="#01A297" d="M72.75,146.46c1.74,0.04,3.44,0.04,5.18,0c0.04,3.52,0,7.07,0.04,10.59c0,1.16-0.08,2.55-1.08,3.36
		c-1.08,1.08-2.7,1.08-4.09,1.24C72.71,156.58,72.71,151.52,72.75,146.46z"/>
	<path fill="#01A297" d="M111.34,146.42c-2.55-0.04-5.29,0.12-7.42,1.66c-2.82,2.05-3.25,6.14-2.12,9.19
		c1.12,2.86,4.33,4.21,7.22,4.21c4.64,0.08,9.27-0.04,13.91,0.04c0-5.02,0-10.08,0-15.11C119.07,146.42,115.21,146.42,111.34,146.42
		z M117.68,157.23c-2.9-0.04-5.79,0.08-8.69-0.04c-1,0-2.12-0.58-2.36-1.66c-0.19-1-0.19-2.09,0-3.09c0.23-1.04,1.31-1.74,2.36-1.7
		c2.9-0.12,5.76,0,8.65-0.04C117.72,152.87,117.72,155.07,117.68,157.23z"/>
	<path fill="#01A297" d="M146.5,139.93c-1.47,0.08-3.17,0.12-4.25,1.27c-1.31,1.39-0.89,3.48-0.97,5.18c-2.78,0.04-5.56,0-8.34,0.04
		c-2.24,0-4.6,0.46-6.37,1.93c-2.67,2.4-2.9,6.76-1.24,9.77c1.62,2.74,5.02,3.48,8,3.36c3.36-0.15,7.07,0.54,10.08-1.31
		c2.05-1.16,3.09-3.55,3.05-5.83C146.54,149.55,146.5,144.72,146.5,139.93z M141.17,155.61c-0.42,1.55-2.2,1.7-3.55,1.66
		c-2.16-0.08-4.4,0.23-6.57-0.27c-1.58-0.5-1.51-2.51-1.43-3.82c0-1.24,0.93-2.4,2.2-2.4c3.13-0.15,6.3,0,9.46-0.08
		C141.28,152.33,141.44,153.99,141.17,155.61z"/>
	<path fill="#01A297" d="M172.38,146.53c-3.28-0.27-6.57-0.04-9.85-0.15c0-2.94,0-5.91,0-8.85c-1.43,0.15-3.09,0.12-4.17,1.24
		c-1.08,1-1,2.63-1.04,3.98c0.04,3.98-0.04,8,0.04,11.98c0,2.4,1.39,4.67,3.55,5.76c2.86,1.43,6.1,0.93,9.19,1.04
		c2.7,0.08,5.79-0.39,7.65-2.59c1.78-2.2,1.93-5.41,1.04-8C177.83,148.27,175.05,146.77,172.38,146.53z M172.77,156.89
		c-2.01,0.62-4.13,0.27-6.18,0.35c-1.43,0-3.44,0.04-3.94-1.62c-0.31-1.62-0.12-3.28-0.12-4.94c3.01,0.08,6.07-0.08,9.08,0.08
		c1.16-0.04,2.24,0.85,2.32,2.05C174.04,154.18,174.27,156.19,172.77,156.89z"/>
	<path fill="#01A297" d="M201.82,146.38c-4.4,0.08-8.81-0.04-13.17,0.04c-2.36,0.04-4.91,0.7-6.53,2.55
		c-1.89,2.36-2.09,5.79-0.93,8.5c1.2,2.7,4.29,3.94,7.11,3.98c4.52,0.08,9.08-0.04,13.6,0.04
		C201.86,156.46,201.86,151.44,201.82,146.38z M196.6,157.23c-2.67-0.04-5.33,0.04-7.96-0.04c-1.12,0-2.51-0.43-2.74-1.7
		c-0.35-1.7-0.35-4.56,1.93-4.71c2.94-0.23,5.87-0.04,8.81-0.08C196.64,152.87,196.64,155.07,196.6,157.23z"/>
</g>
</svg>
