<?xml version="1.0" encoding="utf-8"?>
<!-- Generator: Adobe Illustrator 24.3.0, SVG Export Plug-In . SVG Version: 6.00 Build 0)  -->
<svg version="1.1" id="Layer_1" xmlns="http://www.w3.org/2000/svg" xmlns:xlink="http://www.w3.org/1999/xlink" x="0px" y="0px"
	 viewBox="0 0 512 512" style="enable-background:new 0 0 512 512;" xml:space="preserve">
<style type="text/css">
	.st0{clip-path:url(#SVGID_2_);fill:#FFCC00;}
	.st1{fill:#D40511;}
</style>
<g id="XMLID_1_">
	<g id="XMLID_2_">
		<g id="XMLID_3_">
			<g>
				<defs>
					<rect id="SVGID_1_" y="198.47" width="512" height="115.07"/>
				</defs>
				<clipPath id="SVGID_2_">
					<use xlink:href="#SVGID_1_"  style="overflow:visible;"/>
				</clipPath>
				<path id="XMLID_15_" class="st0" d="M511.87,198.33v115.33H448c-128,0-256,0-384.13,0H0V198.33h63.87c128,0,256,0,384.13,0
					L511.87,198.33"/>
			</g>
		</g>
	</g>
	<path id="XMLID_14_" class="st1" d="M90,219.08l-16.17,22.77h89.87c1.08,0.4,2.83-0.13,2.83,1.62v0.67
		c-3.1,5.39-7.41,10.37-10.78,15.63v0.54l-0.13,0.4l0.13,0.13c0,1.75,3.64,1.75,4.85,1.62h36.38l10.78-14.96l0.54-0.94
		c2.83-4.72,2.56-10.78-0.13-15.49l-0.54-1.21l-0.94-1.08c-4.99-7.28-14.01-9.57-22.37-9.7H90"/>
	<path id="XMLID_13_" class="st1" d="M67.1,292.78l32.88-45.41h41.5c3.77,0.27,3.64,2.02,1.48,4.72l-8.35,11.72l-0.4,0.54
		l-0.54,0.67l-0.13,0.4v1.48l0.13,0.4l0.4,0.4l0.54,0.13l0.67,0.13l0.94,0.13h0.4l0.54,0.13h55.78l-0.94,1.21
		c-10.37,13.88-27.22,23.85-44.73,23.31L67.1,292.78"/>
	<polyline id="XMLID_12_" class="st1" points="255.33,268.26 237.41,292.78 190.52,292.78 208.17,268.26 255.33,268.26 	"/>
	<polyline id="XMLID_11_" class="st1" points="327.28,262.47 212.21,262.47 243.74,219.08 290.63,219.08 272.57,244.14 
		293.46,244.14 311.51,219.08 358.67,219.08 327.28,262.47 	"/>
	<polyline id="XMLID_10_" class="st1" points="323.1,268.26 305.31,292.78 258.29,292.78 276.21,268.26 323.1,268.26 	"/>
	<polyline id="XMLID_9_" class="st1" points="0,277.83 69.25,277.83 65.48,283.22 0,283.22 0,277.83 	"/>
	<polyline id="XMLID_8_" class="st1" points="0,268.26 76.26,268.26 72.49,273.38 0,273.38 0,268.26 	"/>
	<polyline id="XMLID_7_" class="st1" points="0,287.53 62.25,287.53 58.48,292.78 0,292.78 0,287.53 	"/>
	<polyline id="XMLID_6_" class="st1" points="511.87,283.22 442.88,283.22 446.65,277.83 511.87,277.83 511.87,283.22 	"/>
	<polyline id="XMLID_5_" class="st1" points="511.87,292.78 435.87,292.78 439.78,287.53 511.87,287.53 511.87,292.78 	"/>
	<polyline id="XMLID_4_" class="st1" points="453.79,268.26 511.87,268.26 511.87,273.38 450.16,273.38 453.79,268.26 	"/>
	<polyline id="XMLID_17_" class="st1" points="423.75,219.08 392.22,262.47 342.37,262.47 374.03,219.08 423.75,219.08 	"/>
	<path id="XMLID_18_" class="st1" d="M338.46,268.26l-4.99,7.01c-8.76,12.8,8.62,18.19,18.59,17.52h75.45l17.92-24.52H338.46"/>
</g>
</svg>
