<?xml version="1.0"?>
<svg
  xmlns="http://www.w3.org/2000/svg"
  version="1.1"
  width="408"
  height="184">
  <title>SMSA Express logo</title>
  <g id="SMSA_Express-group">
    <path
      id="SMSA_Express-lshape1"
      style="fill: #660099;"
      d="m 21.826167,33.57897 c -1.20475,2.6688 -1.817525,5.53156 -1.82227,7.28902 -0.0047,1.75746 0.0285,2.36578 0.082,2.96454 0.004,0.0431 0.01157,0.0859 0.0156,0.12891 0.712307,7.59518 5.26,12.83438 9.64453,16.65055 4.38453,3.81617 9.49609,6.87499 13.9961,9.625 1.47818,0.90333 2.872112,1.77657 4.01953,2.586 1.147412,0.80943 1.70272,1.96021 1.70312,3.17699 7.4e-4,2.20914 -1.79086,4 -4,4 l -25.464791,0 0,20 36.000045,3e-5 c 9.707135,1e-5 18.462134,-5.35676 22.17383,-13.57902 1.20475,-2.6688 1.817771,-5.53156 1.82227,-7.28901 0.0045,-1.75745 -0.0285,-2.36578 -0.08203,-2.96454 -0.0039,-0.0431 -0.01157,-0.0859 -0.0156,-0.12891 -0.712355,-7.59518 -5.260002,-12.83438 -9.644535,-16.65055 -4.384533,-3.81617 -9.496094,-6.87499 -13.996097,-9.625 -1.478179,-0.90333 -2.872117,-1.77657 -4.019529,-2.586 -1.147412,-0.80943 -1.702721,-1.96021 -1.703125,-3.17699 -7.34e-4,-2.20914 1.790861,-4 3.999999,-4 l 37.464802,0 0,60.00001 24.000004,0 0,-60.00001 16,0 0,60.00001 24,0 0,-60.00001 8,0 c 4.41828,0 8,1.79086 8,4 l 0,56.00001 24,0 0,-60.00001 c 0,-11.0457 -10.74517,-20 -24,-20 l -128.00003,-3e-5 c -9.707133,0 -18.462133,5.35675 -22.173823,13.57901 z"/>
    <path
      id="SMSA_Express-lshape2"
      style="fill: #FF6600;"
      d="m 231.99998,19.99998 c -9.70715,-4e-5 -18.46214,5.35586 -22.17383,13.57812 -1.20475,2.66881 -1.81752,5.53161 -1.82226,7.28907 -0.005,1.75746 0.0285,2.36608 0.082,2.96484 0.004,0.0431 0.0116,0.0859 0.0156,0.12891 0.71231,7.59518 5.26,12.83422 9.64453,16.65039 4.38453,3.81617 9.49609,6.87499 13.9961,9.625 1.47818,0.90333 2.87211,1.77651 4.01953,2.58594 1.14741,0.80943 1.70272,1.96095 1.70312,3.17773 7.4e-4,2.20914 -1.79086,4 -4,4 l -37.46479,0 0,20 48,0 c 9.70714,1e-5 18.46214,-5.35587 22.17383,-13.57813 1.20475,-2.6688 1.81776,-5.53161 1.82226,-7.28906 0.004,-1.75745 -0.0285,-2.36608 -0.082,-2.96484 -0.004,-0.0431 -0.0116,-0.0859 -0.0156,-0.12891 -0.71235,-7.59518 -5.26,-12.83422 -9.64453,-16.65039 -4.38454,-3.81617 -9.4961,-6.87499 -13.9961,-9.625 -1.47818,-0.90333 -2.87212,-1.77651 -4.01953,-2.58594 -1.14741,-0.80943 -1.70272,-1.96095 -1.70312,-3.17773 -7.4e-4,-2.20914 1.79089,-4 4,-4 l 46.68359,0 c -5.92217,6.59264 -9.20458,15.13802 -9.21875,24 0,19.88225 16.11775,36 36,36 8.8625,-0.0153 17.40794,-3.29907 24,-9.22266 l -5e-5,9.22266 24,0 0,-80 -132,0 z m 76,20 32,0 0,32 -10,-10 -15,15 -13,-13 15,-15 -9,-9 z"/>
    <path
      id="SMSA_Express-regsymbol"
      style="fill: #FF6600;"
      d="m 371.99999,92.24628 c 0,-4.62639 3.74851,-7.74835 8,-7.74835 4.25489,0 8,3.12196 8,7.74835 0,4.62636 -3.74511,7.75165 -8,7.75165 -4.25149,0 -8,-3.1253 -8,-7.75165 m 8.04078,-0.87537 c 1.36279,0 1.74682,-0.71226 1.74682,-1.33464 0,-0.74888 -0.38403,-1.33134 -1.74682,-1.33134 l -1.73661,0 0,2.66598 1.73661,0 z m -1.73661,1.20487 0,4.25359 -1.40697,0 0,-9.37589 3.48683,0 c 2.03908,0 2.98046,0.87535 2.98046,2.58278 0,1.04509 -0.72728,1.88051 -1.65846,2.00032 l 0,0.0399 c 0.80204,0.12647 1.1011,0.83872 1.27443,2.13012 0.12914,0.82876 0.29567,2.28989 0.59813,2.62273 l -1.66185,0 c -0.38403,-0.87536 -0.33985,-2.12349 -0.63891,-3.16525 -0.25149,-0.79213 -0.67969,-1.08837 -1.61428,-1.08837 l -1.35938,0 z m 8.16312,-0.3295 c 0,-3.75104 -2.71878,-6.50023 -6.46729,-6.50023 -3.74511,0 -6.46729,2.74919 -6.46729,6.50023 0,3.75101 2.72218,6.49687 6.46729,6.49687 3.74851,0 6.46729,-2.74586 6.46729,-6.49687"/>
    <path
      id="SMSA_Express-letter1"
      style="fill: #660099;"
      d="m 196,154.028 0,-38.02802 21.7557,0 0,2.83701 -18.16761,0 0,14.02061 17.39836,0 0,2.837 -17.39836,0 0,15.4865 18.97815,0 0,2.8419 -22.56624,0 z"/>
    <path
      id="SMSA_Express-letter2"
      style="fill: #660099;"
      d="m 221.16309,154.028 10.60938,-13.6566 -10.06214,-12.91858 4.07856,0 8.21388,10.55528 8.04867,-10.55528 4.07855,0 -10.22217,12.91858 10.65584,13.6566 -4.13018,0 -8.81276,-11.2981 -8.37392,11.2981 -4.08371,0 z"/>
    <path
      id="SMSA_Express-letter3"
      style="fill: #660099;"
      d="m 253.46621,164 -3.31963,0 0,-28.6146 c 0,-2.6276 0,-5.30001 -0.16519,-7.93258 l 3.26799,0 0.10841,3.99367 c 2.05993,-3.1561 4.78069,-4.62194 8.8644,-4.62194 8.48235,0 12.12205,6.77095 12.12205,13.91085 0,7.1499 -3.6397,13.9207 -12.12205,13.9207 -3.81009,0 -6.79931,-1.416 -8.75598,-4.4674 l 0,13.8113 z m 17.34673,-23.2646 c 0,-5.669 -2.45228,-11.23841 -8.9728,-11.23841 -6.14362,0 -8.37393,4.88621 -8.37393,11.23841 0,6.3572 2.23031,11.2384 8.37393,11.2384 6.52568,0 8.9728,-5.5643 8.9728,-11.2384 z"/>
    <path
      id="SMSA_Express-letter4"
      style="fill: #660099;"
      d="m 291.40186,129.91589 c -5.49313,0 -7.40334,4.46731 -7.40334,9.08441 l 0,15.0277 -3.31962,0 0,-18.7573 c 0,-2.5727 -0.0516,-5.19031 -0.16005,-7.81788 l 3.27317,0 0.21168,3.83417 c 1.63141,-3.0415 4.35732,-4.46244 7.99705,-4.46244 0.49045,0 1.03254,0.0498 1.52299,0.1047 l 0,3.20594 c -0.76408,-0.1146 -1.36295,-0.2193 -2.12188,-0.2193 z"/>
    <path
      id="SMSA_Express-letter5"
      style="fill: #660099;"
      d="m 297.5868,141.3138 c 0,5.9831 2.93243,10.9193 8.96765,10.9193 4.67225,0 6.85093,-2.9917 7.66662,-5.9831 l 3.15443,0 c -1.47137,5.5642 -5.00784,8.4061 -11.25989,8.4061 -8.37393,0 -12.0756,-5.9881 -12.0756,-13.4421 0,-7.6135 3.86171,-14.38945 12.50927,-14.38945 8.75597,0 11.09469,7.39925 11.09469,14.48925 l -20.05717,0 z m 0.10326,-2.4132 16.42261,0 c 0,-5.2004 -2.55039,-9.66281 -7.77506,-9.66281 -4.72904,0 -7.99706,3.46021 -8.64755,9.66281 z"/>
    <path
      id="SMSA_Express-letter6"
      style="fill: #660099;"
      d="m 330.59722,154.6561 c -5.65318,0 -9.89177,-2.5776 -9.89177,-8.4061 l 3.31963,0 c 0,3.9887 2.71559,5.9831 6.74251,5.9831 3.75329,0 6.68572,-1.7351 6.68572,-5.2951 0,-3.206 -3.42288,-4.0487 -7.01098,-5.0459 -4.34699,-1.2065 -9.08122,-2.5228 -9.08122,-7.6683 0,-5.71901 4.94589,-7.39925 9.57168,-7.39925 5.32276,0 9.29807,1.98944 9.45811,7.50395 l -3.31964,0 c -0.16004,-3.14621 -2.49874,-4.93121 -6.0352,-4.93121 -2.77239,0 -6.14365,1.0471 -6.14365,4.51231 0,3.1561 3.37126,4.0486 6.95935,4.991 4.35734,1.1517 9.13801,2.4132 9.13801,7.5636 -0.005,5.9832 -4.78584,8.1919 -10.39255,8.1919 z"/>
    <path
      id="SMSA_Express-letter7"
      style="fill: #660099;"
      d="m 353.60229,154.6561 c -5.65833,0 -9.89693,-2.5776 -9.89693,-8.4061 l 3.31962,0 c 0,3.9887 2.7156,5.9831 6.74768,5.9831 3.75329,0 6.68572,-1.7351 6.68572,-5.2951 0,-3.206 -3.42804,-4.0487 -7.01614,-5.0459 -4.347,-1.2065 -9.07606,-2.5228 -9.07606,-7.6683 0,-5.71901 4.94589,-7.39925 9.57168,-7.39925 5.32277,0 9.29807,1.98944 9.45811,7.50395 l -3.31964,0 c -0.16003,-3.14621 -2.49874,-4.93121 -6.0352,-4.93121 -2.77239,0 -6.14365,1.0471 -6.14365,4.51231 0,3.1561 3.37126,4.0486 6.96451,4.991 4.35218,1.1517 9.13802,2.4132 9.13802,7.5636 -0.0103,5.9832 -4.79617,8.1919 -10.39772,8.1919 z"/>
  </g>
</svg>
