<svg id="Group_10360" data-name="Group 10360" xmlns="http://www.w3.org/2000/svg" xmlns:xlink="http://www.w3.org/1999/xlink" width="120.833" height="41.683" viewBox="0 0 120.833 41.683">
  <defs>
    <linearGradient id="linear-gradient" x1="0.5" x2="0.5" y2="1" gradientUnits="objectBoundingBox">
      <stop offset="0" stop-color="#ec0148"/>
      <stop offset="0.1" stop-color="#e10254"/>
      <stop offset="0.2" stop-color="#d60460"/>
      <stop offset="0.3" stop-color="#cc056c"/>
      <stop offset="0.4" stop-color="#c10778"/>
      <stop offset="0.5" stop-color="#b60884"/>
      <stop offset="0.6" stop-color="#ab0a8f"/>
      <stop offset="0.7" stop-color="#a00b9b"/>
      <stop offset="0.8" stop-color="#960da7"/>
      <stop offset="0.9" stop-color="#8b0eb3"/>
      <stop offset="1" stop-color="#8010bf"/>
    </linearGradient>
    <clipPath id="clip-path">
      <path id="Path_114" data-name="Path 114" d="M3.915-41.489a12.1,12.1,0,0,1,8.851-3.645v6.308a6.028,6.028,0,0,0-4.392,1.8,5.91,5.91,0,0,0-1.823,4.369v11.823H.243V-32.658A11.983,11.983,0,0,1,3.915-41.489ZM37.273-20.835l-1.322-3.647a11.965,11.965,0,0,1-9.532,4.395A12.47,12.47,0,0,1,14.1-30.4a12.47,12.47,0,0,1,8.067-13.9,12.354,12.354,0,0,1,4.3-.794,12.123,12.123,0,0,1,7.173,2.267,12.332,12.332,0,0,1,4.556,6l5.793,15.982ZM22.909-27.476a5.924,5.924,0,0,0,3.505,1.126,6.013,6.013,0,0,0,4.392-1.807A6.216,6.216,0,0,0,32.6-33.1a6.216,6.216,0,0,0-2.64-4.552,6.18,6.18,0,0,0-3.551-1.08,5.736,5.736,0,0,0-5.047,2.627,6.2,6.2,0,0,0-1.122,3.565,5.81,5.81,0,0,0,2.664,5.066Zm19.23-34.292h6.309v14.346a12.269,12.269,0,0,1,6.215-1.634,12.522,12.522,0,0,1,11.572,7.741A12.522,12.522,0,0,1,63.5-27.664a12.522,12.522,0,0,1-13.661,2.684,12.522,12.522,0,0,1-7.7-11.6Zm8.131,29.579a5.983,5.983,0,0,0,4.392,1.823,5.907,5.907,0,0,0,4.368-1.823,6.028,6.028,0,0,0,1.8-4.392,6.223,6.223,0,0,0-6.169-6.168,6.028,6.028,0,0,0-4.392,1.8,5.912,5.912,0,0,0-1.823,4.369A5.986,5.986,0,0,0,50.269-32.189ZM70.1-57.843h6.31V-43.5a12.271,12.271,0,0,1,6.215-1.634A12.522,12.522,0,0,1,94.2-37.39a12.522,12.522,0,0,1-2.736,13.651A12.522,12.522,0,0,1,77.8-21.054a12.522,12.522,0,0,1-7.7-11.6Zm8.131,29.579a5.986,5.986,0,0,0,4.392,1.823A5.909,5.909,0,0,0,87-28.264a6.025,6.025,0,0,0,1.8-4.392,6.224,6.224,0,0,0-6.169-6.169,6.03,6.03,0,0,0-4.392,1.8,5.912,5.912,0,0,0-1.823,4.369,5.988,5.988,0,0,0,1.823,4.391Zm19.536-22.2a3.578,3.578,0,0,1,1.1-2.664,3.7,3.7,0,0,1,2.687-1.074,3.75,3.75,0,0,1,3.738,3.739,3.7,3.7,0,0,1-1.074,2.687,3.581,3.581,0,0,1-2.664,1.1,3.75,3.75,0,0,1-2.687-1.1,3.75,3.75,0,0,1-1.1-2.687Zm.654,5.373h6.308v24.252H98.425Zm22.65,5.375h-6.216v6.4a5.907,5.907,0,0,0,1.823,4.369,6.022,6.022,0,0,0,4.392,1.8v6.309a12.487,12.487,0,0,1-8.85-3.641,12.487,12.487,0,0,1-3.674-8.836V-57.843h6.308v12.757h6.216Z" transform="translate(-0.242 61.768)" fill="url(#linear-gradient)"/>
    </clipPath>
    <clipPath id="clip-path-2">
      <path id="Path_113" data-name="Path 113" d="M-99,115.862H156.324V-437H-99Z" transform="translate(99 437)" fill="url(#linear-gradient)"/>
    </clipPath>
  </defs>
  <g id="Group_10167" data-name="Group 10167" transform="translate(0)" clip-path="url(#clip-path)">
    <g id="Group_10166" data-name="Group 10166" transform="translate(-67.57 -255.482)" clip-path="url(#clip-path-2)">
      <path id="Path_112" data-name="Path 112" d="M-.837-62.768H121.412v43.417H-.837Z" transform="translate(67.673 317.569)" fill="url(#linear-gradient)"/>
    </g>
  </g>
</svg>
